<svg id="icons" enable-background="new 0 0 64 64" height="512" viewBox="0 0 64 64" width="512" xmlns="http://www.w3.org/2000/svg"><g><g><circle cx="32" cy="15.5" fill="#ed5565" r="9"/></g><g><circle cx="13.5" cy="51" fill="#e6e9ed" r="2.5"/></g><g><path d="m57 51c0 .52-.06 1.02-.18 1.5-.67 2.87-3.25 5-6.32 5s-5.65-2.13-6.32-5c-.12-.48-.18-.98-.18-1.5 0-3.59 2.91-6.5 6.5-6.5s6.5 2.91 6.5 6.5zm-4 0c0-1.38-1.12-2.5-2.5-2.5-1.39 0-2.5 1.12-2.5 2.5s1.11 2.5 2.5 2.5c1.38 0 2.5-1.12 2.5-2.5z" fill="#656d78"/></g><g><path d="m50.5 48.5c1.38 0 2.5 1.12 2.5 2.5s-1.12 2.5-2.5 2.5c-1.39 0-2.5-1.12-2.5-2.5s1.11-2.5 2.5-2.5z" fill="#e6e9ed"/></g><g><path d="m20 51c0 .52-.06 1.02-.18 1.5-.67 2.87-3.25 5-6.32 5s-5.65-2.13-6.32-5c-.12-.48-.18-.98-.18-1.5 0-3.59 2.91-6.5 6.5-6.5s6.5 2.91 6.5 6.5zm-4 0c0-1.38-1.12-2.5-2.5-2.5s-2.5 1.12-2.5 2.5 1.12 2.5 2.5 2.5 2.5-1.12 2.5-2.5z" fill="#656d78"/></g><g><path d="m46 38.5h-22v-7.92-.01c.66-.051 1.33-.08 2-.08 11 0 20 8.01 20 8.01z" fill="#5d9cec"/></g><g><path d="m24 30.58v7.92l-11-5.03c3.03-1.35 6.83-2.59 11-2.899z" fill="#5d9cec"/></g><g><path d="m62 45.5v2h1v5h-6.18c.12-.48.18-.98.18-1.5 0-3.59-2.91-6.5-6.5-6.5s-6.5 2.91-6.5 6.5c0 .52.06 1.02.18 1.5h-.01-24.34-.01c.12-.48.18-.98.18-1.5 0-3.59-2.91-6.5-6.5-6.5s-6.5 2.91-6.5 6.5c0 .52.06 1.02.18 1.5h-.01-2.17l-4-3v-12.01h5s2.72-2.12 7-4.021l11 5.03h22l11 1.08c2.84.481 5 2.941 5 5.921z" fill="#ffce54"/></g></g><g><g><g><path d="m62.001 46.5c-.553 0-1-.447-1-1 0-2.453-1.753-4.526-4.168-4.93-.544-.091-.912-.606-.821-1.151.091-.544.606-.917 1.151-.821 3.383.565 5.838 3.468 5.838 6.902 0 .553-.447 1-1 1z"/></g><g><path d="m62.001 48.498c-.553 0-1-.447-1-1v-1.998c0-.553.447-1 1-1s1 .447 1 1v1.998c0 .553-.447 1-1 1z"/></g><g><path d="m63 53.498c-.553 0-1-.447-1-1v-4h-1c-.553 0-1-.447-1-1s.447-1 1-1h2c.553 0 1 .447 1 1v5c0 .553-.447 1-1 1z"/></g><g><path d="m44.173 53.498h-24.347c-.553 0-1-.447-1-1s.447-1 1-1h24.347c.553 0 1 .447 1 1s-.447 1-1 1z"/></g><g><path d="m5.003 53.498c-.208 0-.419-.065-.599-.2l-4.004-3c-.442-.331-.532-.957-.2-1.399.33-.439.956-.533 1.399-.2l4.004 3c.442.331.532.957.2 1.399-.196.261-.495.4-.8.4z"/></g><g><path d="m1 50.498c-.553 0-1-.447-1-1v-12.004c0-.553.447-1 1-1s1 .447 1 1v12.004c0 .553-.447 1-1 1z"/></g><g><path d="m6.002 38.494h-5.002c-.553 0-1-.447-1-1s.447-1 1-1h5.002c.553 0 1 .447 1 1s-.447 1-1 1z"/></g><g><path d="m46.001 39.496c-.235 0-.473-.083-.663-.252-.087-.078-8.862-7.752-19.343-7.752-10.539 0-19.291 6.723-19.379 6.791-.437.338-1.064.26-1.403-.175-.339-.436-.261-1.063.175-1.403.378-.294 9.388-7.213 20.607-7.213 11.256 0 20.292 7.92 20.671 8.257.413.366.45.998.083 1.411-.197.222-.472.336-.748.336z"/></g><g><path d="m57.002 40.584c-.032 0-.065-.002-.099-.005l-10.999-1.084c-.55-.054-.952-.544-.897-1.093.054-.549.543-.945 1.093-.897l10.999 1.084c.55.054.952.544.897 1.093-.051.516-.485.902-.994.902z"/></g><g><path d="m46.002 39.496h-21.998c-.553 0-1-.447-1-1s.447-1 1-1h21.998c.553 0 1 .447 1 1s-.447 1-1 1z"/></g><g><path d="m24.003 39.496c-.139 0-.28-.029-.415-.091l-11.002-5.027c-.502-.229-.723-.822-.493-1.325.229-.502.821-.724 1.325-.493l11.002 5.027c.502.229.723.822.493 1.325-.168.367-.53.584-.91.584z"/></g><g><path d="m24.004 39.496c-.553 0-1-.447-1-1v-7.918c0-.553.447-1 1-1s1 .447 1 1v7.918c0 .553-.447 1-1 1z"/></g><g><path d="m13.5 58.498c-4.136 0-7.5-3.364-7.5-7.5s3.364-7.5 7.5-7.5 7.5 3.364 7.5 7.5-3.364 7.5-7.5 7.5zm0-13c-3.032 0-5.5 2.468-5.5 5.5s2.468 5.5 5.5 5.5 5.5-2.468 5.5-5.5-2.468-5.5-5.5-5.5z"/></g><g><path d="m13.5 54.498c-1.93 0-3.5-1.57-3.5-3.5s1.57-3.5 3.5-3.5 3.5 1.57 3.5 3.5-1.57 3.5-3.5 3.5zm0-5c-.827 0-1.5.673-1.5 1.5s.673 1.5 1.5 1.5 1.5-.673 1.5-1.5-.673-1.5-1.5-1.5z"/></g><g><path d="m50.499 58.498c-4.136 0-7.5-3.364-7.5-7.5s3.364-7.5 7.5-7.5 7.5 3.364 7.5 7.5-3.364 7.5-7.5 7.5zm0-13c-3.032 0-5.5 2.468-5.5 5.5s2.468 5.5 5.5 5.5 5.5-2.468 5.5-5.5-2.468-5.5-5.5-5.5z"/></g><g><path d="m50.495 54.498c-1.93 0-3.5-1.57-3.5-3.5s1.57-3.5 3.5-3.5 3.5 1.57 3.5 3.5-1.57 3.5-3.5 3.5zm0-5c-.827 0-1.5.673-1.5 1.5s.673 1.5 1.5 1.5 1.5-.673 1.5-1.5-.673-1.5-1.5-1.5z"/></g><g><path d="m7.175 53.498h-2.171c-.553 0-1-.447-1-1s.447-1 1-1h2.171c.553 0 1 .447 1 1s-.447 1-1 1z"/></g><g><path d="m63 53.498h-6.176c-.553 0-1-.447-1-1s.447-1 1-1h6.176c.553 0 1 .447 1 1s-.447 1-1 1z"/></g></g><g><path d="m63 58.498h-62c-.553 0-1-.447-1-1s.447-1 1-1h62c.553 0 1 .447 1 1s-.447 1-1 1z"/></g><g><path d="m46.002 39.496c-.388 0-.757-.227-.919-.606-.218-.507.018-1.095.525-1.313l12.767-5.473c.503-.221 1.095.017 1.313.525.218.507-.018 1.095-.525 1.313l-12.767 5.473c-.128.056-.262.081-.394.081z"/></g><g><path d="m60.84 34.502c-.257 0-.513-.098-.708-.294-.272-.273-.668-.366-1.038-.239-.524.18-1.092-.097-1.271-.619s.097-1.092.619-1.271c1.097-.379 2.288-.104 3.106.718.391.392.389 1.024-.002 1.414-.195.193-.451.291-.706.291z"/></g><g><path d="m48.998 33.506c-.256 0-.512-.098-.707-.293-.391-.391-.391-1.023 0-1.414.294-.304 1.18-1.406 0-2.586-1.986-1.985-1.088-4.327 0-5.416.391-.391 1.023-.391 1.414 0 .389.389.391 1.018.005 1.409-.301.312-1.184 1.414-.005 2.593 1.986 1.986 1.088 4.326 0 5.414-.195.195-.451.293-.707.293z"/></g><g><path d="m54 31.504c-.256 0-.512-.098-.707-.293-.391-.391-.391-1.023 0-1.414.294-.304 1.18-1.406 0-2.586-1.986-1.985-1.088-4.327 0-5.416.391-.391 1.023-.391 1.414 0 .389.389.391 1.018.005 1.409-.301.312-1.184 1.414-.005 2.593 1.986 1.986 1.088 4.326 0 5.414-.195.195-.451.293-.707.293z"/></g><g><path d="m59.002 29.502c-.256 0-.512-.098-.707-.293-.391-.391-.391-1.023 0-1.414.294-.304 1.18-1.406 0-2.586-1.986-1.985-1.088-4.327 0-5.416.391-.391 1.023-.391 1.414 0 .389.389.391 1.018.005 1.409-.301.312-1.184 1.414-.005 2.593 1.986 1.986 1.088 4.326 0 5.414-.195.195-.451.293-.707.293z"/></g><g><path d="m32 25.502c-5.514 0-10-4.486-10-10s4.486-10 10-10 10 4.486 10 10-4.486 10-10 10zm0-18c-4.411 0-8 3.589-8 8s3.589 8 8 8 8-3.589 8-8-3.589-8-8-8z"/></g><g><path d="m32 17.494c-.553 0-1-.447-1-1v-5c0-.553.447-1 1-1s1 .447 1 1v5c0 .553-.447 1-1 1z"/></g><g><path d="m32.03 20.494c-.553 0-1.005-.447-1.005-1s.442-1 .994-1h.011c.552 0 1 .447 1 1s-.448 1-1 1z"/></g></g></svg>