<svg id="Capa_1" enable-background="new 0 0 512 512" height="512" viewBox="0 0 512 512" width="512" xmlns="http://www.w3.org/2000/svg"><g><g><g><path d="m313.851 234.301h-115.702c-1.631 0-2.953-1.322-2.953-2.953v-22.784c0-1.631 1.322-2.953 2.953-2.953h115.703c1.631 0 2.953 1.322 2.953 2.953v22.784c0 1.631-1.323 2.953-2.954 2.953z" fill="#e28086"/></g><g><path d="m313.935 205.61h-10.803v12.15c0 1.585-1.285 2.869-2.869 2.869h-105.068v10.803c0 1.585 1.285 2.869 2.869 2.869h115.871c1.585 0 2.869-1.285 2.869-2.869v-22.953c.001-1.584-1.284-2.869-2.869-2.869z" fill="#dd636e"/></g></g><g><path d="m388.853 400.166-16.182 13.94-25.145-29.191 16.182-13.94c2.511-2.163 6.299-1.881 8.462.63l17.313 20.099c2.162 2.511 1.88 6.3-.63 8.462z" fill="#30579d"/></g><g><path d="m382.366 383.443-20.728 17.856 11.033 12.808 16.182-13.94c2.511-2.163 2.793-5.951.63-8.462z" fill="#26457d"/></g><g><path d="m93.773 470.789h36.066l288.388-164.402-14.435-25.321-307.077 175.057c-1.819 1.037-2.942 2.97-2.942 5.064z" fill="#3b66c1"/></g><g><path d="m101.431 470.789h28.408l288.388-164.402-6.967-12.223z" fill="#30579d"/></g><g><path d="m418.227 470.789h-36.066l-288.388-164.402 14.435-25.321 307.078 175.057c1.819 1.037 2.942 2.97 2.942 5.064v9.602z" fill="#3b66c1"/></g><g><path d="m414.505 470.789h3.723v-9.602c0-2.094-1.123-4.027-2.942-5.064l-307.079-175.057-6.502 11.405z" fill="#30579d"/></g><g><path d="m499.713 319.849h-487.426c-2.761 0-5-2.239-5-5v-31.047c0-2.761 2.239-5 5-5h487.427c2.761 0 5 2.239 5 5v31.047c-.001 2.761-2.239 5-5.001 5z" fill="#e28086"/></g><path d="m499.714 278.802h-11.778v19.269c0 2.761-2.239 5-5 5h-475.65v11.778c0 2.761 2.239 5 5 5h487.427c2.761 0 5-2.239 5-5v-31.047c.001-2.762-2.238-5-4.999-5z" fill="#dd636e"/><g><path d="m154.49 490.149h-87.712v-16.564c0-4.971 4.029-9 9-9h69.712c4.971 0 9 4.029 9 9z" fill="#30579d"/></g><g><path d="m445.222 490.149h-87.712v-16.564c0-4.971 4.029-9 9-9h69.712c4.971 0 9 4.029 9 9z" fill="#30579d"/></g><g><path d="m145.49 464.585h-21.457c4.829 0 8.744 3.915 8.744 8.744v16.82h21.713v-16.564c0-4.97-4.03-9-9-9z" fill="#26457d"/></g><g><path d="m436.222 464.585h-21.457c4.829 0 8.744 3.915 8.744 8.744v16.82h21.713v-16.564c0-4.97-4.029-9-9-9z" fill="#26457d"/></g><g><path d="m186.399 21.851h77.549c24.091 0 47.449 8.29 66.15 23.479l56.344 45.761h-321.997l55.419-45.447c18.761-15.385 42.273-23.793 66.535-23.793z" fill="#9dc6fb"/></g><g><path d="m330.098 45.33c-18.701-15.188-42.058-23.479-66.15-23.479h-59.064c24.091 0 47.449 8.29 66.15 23.479l56.344 45.761h59.064z" fill="#80b4fb"/></g><g><path d="m480.557 105.98c-18.368-8.265-73.341-21.184-99.331-27.052-9.091-2.052-18.377-3.085-27.696-3.085h-326.697c-10.786 0-19.53 8.744-19.53 19.53v68.241c0 7.03 2.983 13.729 8.206 18.433l22.449 20.215c4.811 4.332 11.056 6.73 17.53 6.73h434.416c8.169 0 14.791-6.622 14.791-14.791v-50.888c.001-16.11-9.447-30.722-24.138-37.333z" fill="#f9f6f9"/></g><g><path d="m7.321 159.074h5.228c7.523 0 14.227-4.749 16.722-11.846l4.991-14.195c.666-1.896-.74-3.881-2.75-3.881h-24.191z" fill="#ffe07d"/></g><g><path d="m31.512 129.151h-9.156l-2.903 8.258c-1.972 5.609-6.576 9.739-12.132 11.23v10.434h5.228c7.523 0 14.227-4.749 16.722-11.846l4.991-14.195c.666-1.895-.741-3.881-2.75-3.881z" fill="#ffd064"/></g><g><path d="m480.557 105.98c-1.508-.679-3.285-1.391-5.251-2.126 1.793 4.631 2.763 9.625 2.763 14.774v50.888c0 8.169-6.622 14.791-14.791 14.791h-434.416c-6.167 0-12.123-2.18-16.833-6.131 1.013 1.397 2.177 2.696 3.482 3.87l22.449 20.215c4.811 4.332 11.056 6.73 17.53 6.73h434.416c8.169 0 14.791-6.622 14.791-14.791v-50.888c-.001-16.109-9.449-30.721-24.14-37.332z" fill="#dddaec"/></g><g><path d="m442.613 136.784 18.938 17.069c3.729 3.361 8.571 5.221 13.59 5.221h29.556v-15.761c0-4.923-.886-9.704-2.531-14.162h-56.62c-4.013 0-5.914 4.947-2.933 7.633z" fill="#ffe07d"/></g><g><path d="m502.165 129.151h-10.317c.053.788.09 1.579.09 2.375v6.164c0 5.3-4.297 9.597-9.597 9.597h-24.69c-1.242 0-2.471-.102-3.683-.268l7.582 6.834c3.729 3.361 8.57 5.221 13.59 5.221h29.556v-15.761c0-4.923-.886-9.704-2.531-14.162z" fill="#ffd064"/></g><g><path d="m166.965 208.991v-25.272c0-27.843-22.571-50.414-50.414-50.414h-8.733c-27.843 0-50.414 22.571-50.414 50.414v25.272z" fill="#26457d"/></g><g><path d="m429.272 208.991v-25.272c0-27.843-22.571-50.414-50.414-50.414h-8.733c-27.843 0-50.414 22.571-50.414 50.414v25.272z" fill="#26457d"/></g><g><path d="m116.551 133.305h-8.733c-3.23 0-6.385.316-9.447.897 23.325 4.424 40.967 24.904 40.967 49.517v25.272h27.627v-25.272c0-27.843-22.571-50.414-50.414-50.414z" fill="#21386b"/></g><g><path d="m378.858 133.305h-8.733c-3.23 0-6.385.316-9.447.897 23.325 4.424 40.967 24.904 40.967 49.517v25.272h27.627v-25.272c0-27.843-22.571-50.414-50.414-50.414z" fill="#21386b"/></g><g><path d="m347.662 104.842h-32.455c-2.761 0-5-2.239-5-5v-24.244c0-2.761 2.239-5 5-5h12.08c14.014 0 25.375 11.361 25.375 25.375v3.869c0 2.762-2.239 5-5 5z" fill="#dddaec"/></g><path d="m336.537 72.345c1.123 2.867 1.747 5.985 1.747 9.25v3.869c0 2.761-2.239 5-5 5h-23.077v9.378c0 2.761 2.239 5 5 5h32.455c2.761 0 5-2.239 5-5v-3.869c0-10.749-6.687-19.93-16.125-23.628z" fill="#d0cee7"/><g><circle cx="374.492" cy="196.146" fill="#f9f6f9" r="31.685"/></g><g><path d="m386.884 166.977c1.619 3.807 2.517 7.994 2.517 12.392 0 17.499-14.186 31.685-31.685 31.685-4.398 0-8.585-.897-12.392-2.516 4.824 11.341 16.067 19.293 29.169 19.293 17.499 0 31.685-14.186 31.685-31.685-.001-13.101-7.954-24.344-19.294-29.169z" fill="#dddaec"/></g><g><circle cx="112.185" cy="196.146" fill="#f9f6f9" r="31.685"/></g><g><path d="m124.576 166.977c1.619 3.807 2.516 7.994 2.516 12.392 0 17.499-14.186 31.685-31.685 31.685-4.398 0-8.585-.897-12.392-2.516 4.824 11.341 16.067 19.293 29.169 19.293 17.499 0 31.685-14.186 31.685-31.685.001-13.101-7.952-24.344-19.293-29.169z" fill="#dddaec"/></g><g><path d="m499.856 271.515h-206.447s-.001-.001-.001-.001l-24.005-15.549 22.198-14.378h22.335c5.6 0 10.156-4.556 10.156-10.156v-15.154h17.044c6.835 11.283 19.229 18.84 33.357 18.84s26.522-7.557 33.358-18.84h82.057c12.174 0 22.077-9.904 22.077-22.077v-50.888c.002-5.92-1.098-11.633-3.11-17.011-4.455-11.784-13.445-21.62-25.326-26.966-18.532-8.339-71.056-20.818-100.716-27.515-3.641-.822-7.32-1.488-11.022-2.001l-37.117-30.146c-19.935-16.192-45.06-25.109-70.744-25.109h-77.549c-25.876 0-51.146 9.037-71.155 25.445l-34.594 28.368c-.07.057-.131.121-.198.18h-53.621c-14.787 0-26.816 12.03-26.816 26.816v68.241c0 9.08 3.87 17.772 10.617 23.847l22.45 20.216c6.16 5.546 14.117 8.601 22.406 8.601h23.338c6.835 11.283 19.229 18.84 33.357 18.84s26.522-7.557 33.357-18.84h42.367v15.154c0 5.6 4.556 10.156 10.156 10.156h22.335l22.198 14.378-24.005 15.549s-.001.001-.001.001h-126.762c-4.024 0-7.287 3.262-7.287 7.287 0 4.024 3.262 7.287 7.287 7.287h405.597v26.474h-482.854v-26.474h42.832c4.024 0 7.287-3.262 7.287-7.287 0-4.024-3.262-7.287-7.287-7.287h-45.26c-6.697-.001-12.145 5.447-12.145 12.143v31.332c0 6.696 5.448 12.144 12.144 12.144h103.553c.325.27 96.164 54.958 96.164 54.958l-118.757 67.7c-2.921 1.666-5.043 4.378-6.019 7.506h-11.563c-8.839 0-16.03 7.191-16.03 16.03v9.533h-18.14c-4.024 0-7.287 3.262-7.287 7.287s3.262 7.287 7.287 7.287h423.803c4.025 0 7.287-3.262 7.287-7.287s-3.262-7.287-7.287-7.287h-12.645v-9.533c0-8.839-7.192-16.03-16.03-16.03h-11.564c-.975-3.129-3.099-5.841-6.02-7.507l-13.012-7.418-23.479-27.035 11.786-10.152c5.191-4.287 5.814-12.65 1.315-17.659l-18.313-21.259c-4.505-5.23-12.428-5.818-17.658-1.314l-12.016 10.35-11.773-13.51 60.799-34.66h103.313c6.696 0 12.144-5.448 12.144-12.144v-31.332c-.002-6.696-5.45-12.144-12.146-12.144zm-125.365-50.97c-13.453 0-24.398-10.945-24.398-24.399s10.945-24.398 24.398-24.398c13.454 0 24.399 10.945 24.399 24.398.001 13.454-10.945 24.399-24.399 24.399zm0-63.37c-21.489 0-38.972 17.482-38.972 38.972 0 1.888.142 3.742.403 5.559h-8.925v-17.986c0-23.78 19.346-43.127 43.127-43.127h8.733c23.781 0 43.127 19.347 43.127 43.127v17.986h-8.925c.261-1.817.403-3.671.403-5.559.002-21.49-17.481-38.972-38.971-38.972zm122.919-5.388h-22.27c-3.223 0-6.318-1.188-8.712-3.346l-13.317-12.003h43.574c.725 5.979.725 15.349.725 15.349zm-179.917-73.902h10.515c9.576 0 17.366 7.79 17.366 17.366v2.305h-27.881zm8.011-26.899 21.638 17.574c-.478.004-.946.052-1.398.144-5.077-3.403-11.178-5.391-17.735-5.391h-12.944c-4.134 0-7.788 2.08-9.982 5.245h-76.94v-39.42h35.805c22.348 0 44.21 7.759 61.556 21.848zm-111.935-21.848v39.419h-71.982v-28.506c13.778-7.108 29.165-10.913 44.812-10.913zm-86.555 20.156v19.262h-23.599s22.749-18.611 23.599-19.262zm-106.628 127.337c-3.023-2.721-4.964-6.41-5.572-10.383 9.664-.88 18.068-7.324 21.33-16.603l4.991-14.195c2.438-6.37-2.807-13.771-9.624-13.585h-16.921v-26.492c0-6.751 5.492-12.243 12.243-12.243h276.087v16.855c0 6.696 5.448 12.144 12.144 12.144h32.739c6.696 0 12.144-5.448 12.144-12.144v-4.735c0-4.26-.845-8.324-2.365-12.043 7.417.254 14.812 1.197 22.039 2.828 23.448 5.294 79.93 18.483 97.946 26.589 4.776 2.149 8.868 5.35 12.086 9.24h-44.108c-4.87 0-9.145 2.937-10.891 7.483-1.747 4.546-.537 9.589 3.08 12.849l18.937 17.069c5.077 4.575 11.636 7.094 18.469 7.094h22.269v27.841c0 4.138-3.366 7.504-7.504 7.504h-53.347v-17.986c0-31.816-25.884-57.7-57.7-57.7h-8.733c-31.816 0-57.7 25.884-57.7 57.7v17.986h-84.283v-92.993c0-4.024-3.262-7.287-7.287-7.287-4.024 0-7.287 3.262-7.287 7.287v92.993h-39.318v-17.986c0-31.816-25.884-57.7-57.7-57.7h-8.733c-31.816 0-57.7 25.884-57.7 57.7v17.199c-2.678-.793-5.169-2.168-7.283-4.071zm-5.779-25.049v-15.144h10.733l-2.944 8.373c-1.234 3.512-4.233 6.053-7.789 6.771zm97.578 68.963c-13.454 0-24.398-10.945-24.398-24.399s10.945-24.398 24.398-24.398 24.399 10.945 24.399 24.398c-.001 13.454-10.946 24.399-24.399 24.399zm0-63.37c-21.489 0-38.972 17.482-38.972 38.972 0 1.888.142 3.742.403 5.559h-8.925v-17.986c0-23.78 19.346-43.127 43.127-43.127h8.733c23.78 0 43.127 19.347 43.127 43.127v17.986h-8.925c.261-1.817.403-3.671.403-5.559.001-21.49-17.482-38.972-38.971-38.972zm90.297 59.103h107.036v10.736h-107.036zm44.723 25.309h17.59l-8.795 5.697zm8.795 23.06 10.604 6.868h-21.207zm111.489 112.689 15.634 18.149-9.687 8.344-15.634-18.149zm-128.369-30.028v-20.172h33.761v20.172l-16.881 9.623zm-35.386-20.172h20.813v11.864zm83.72 0h20.812l-20.812 11.864zm-60.88 63.345 14.713 8.388-102.497 58.43h-29.426zm-152.509 82.848c0-.804.654-1.457 1.457-1.457h70.224c.804 0 1.457.654 1.457 1.457v9.533h-73.138zm363.87 0v9.533h-73.139v-9.533c0-.804.654-1.457 1.457-1.457h70.224c.805 0 1.458.654 1.458 1.457zm-64.725-16.03-51.083-29.12c-3.494-1.992-7.946-.775-9.938 2.722-1.993 3.496-.774 7.946 2.722 9.939l39.026 22.247c-2.316 2.78-3.713 6.351-3.713 10.243v9.533h-188.448v-9.533c0-3.892-1.397-7.463-3.713-10.243l97.937-55.831 30.069 17.142c3.433 1.975 7.935.807 9.939-2.722 1.993-3.496.774-7.946-2.721-9.939l-148.405-84.602h29.666c.325.27 228.087 130.163 228.087 130.163h-29.425zm-5.582-36.732-67.489-38.474 22.691-12.936zm-82.203-46.861-14.713-8.387 66.979-38.183h29.424z"/><path d="m145.476 119.308h14.848c4.024 0 7.287-3.262 7.287-7.287s-3.262-7.287-7.287-7.287h-14.848c-4.024 0-7.287 3.262-7.287 7.287s3.263 7.287 7.287 7.287z"/><path d="m250.938 119.308h14.848c4.025 0 7.287-3.262 7.287-7.287s-3.262-7.287-7.287-7.287h-14.848c-4.024 0-7.287 3.262-7.287 7.287s3.263 7.287 7.287 7.287z"/><circle cx="464.608" cy="183.286" r="7.669"/></g></g></svg>