<svg id="Capa_1" enable-background="new 0 0 398.702 398.702" height="512" viewBox="0 0 398.702 398.702" width="512" xmlns="http://www.w3.org/2000/svg"><g><g fill="#2f4859"><path d="m334.813 265.351 29.307-.175c5.586-.033 10.142 4.468 10.176 10.055l.347 58.193c.033 5.586-4.468 10.142-10.055 10.176l-29.307.175c-5.586.033-10.142-4.468-10.176-10.055l-.347-58.193c-.034-5.587 4.468-10.142 10.055-10.176z"/><path d="m36.581 267.126 29.307-.175c5.586-.033 10.142 4.468 10.176 10.055l.346 58.194c.033 5.586-4.468 10.142-10.055 10.176l-29.307.175c-5.586.033-10.142-4.468-10.176-10.055l-.347-58.193c-.033-5.587 4.469-10.143 10.056-10.177z"/><path d="m368.127 123.618c-2.448.231-4.31 2.3-4.284 4.758.603 4.798-2.472 9.291-7.162 10.467l-7.291.045 3.744 10.927s46.941-.282 45.537-15.7c-1.088-11.966-21.462-11.368-30.544-10.497z"/><path d="m30.575 123.618c2.448.231 4.31 2.3 4.284 4.758-.603 4.798 2.472 9.291 7.162 10.467l7.291.045-3.744 10.927s-46.941-.282-45.537-15.7c1.088-11.966 21.462-11.368 30.544-10.497z"/></g><path d="m388.209 215.176c-.877-11.467-4.192-22.614-9.725-32.696l-19.786-36.287s-35.134-79.192-49.771-85.494c-14.152-6.094-104.483-7.464-110.468-7.548h-.331c-5.985.158-96.292 2.607-110.369 8.869-14.562 6.475-48.767 86.067-48.767 86.067l-19.335 36.524c-5.409 10.147-8.591 21.33-9.334 32.805-1.36 25.346 1.371 50.747 8.087 75.225 3.164 11.544 13.707 19.508 25.677 19.395l155.579-.9h.331l155.579-.925c11.968-.033 22.413-8.122 25.439-19.702 6.431-24.561 8.86-49.999 7.194-75.333z" fill="#fe7058"/><path d="m123.683 262.235 151.609-.905c2.713-.016 4.925 2.17 4.941 4.882l.154 25.815c.016 2.713-2.17 4.925-4.882 4.941l-151.609.905c-2.713.016-4.925-2.17-4.941-4.882l-.154-25.815c-.016-2.713 2.17-4.925 4.882-4.941z" fill="#3a556a"/><path d="m311.768 72.645c-1.583-3.447-4.997-5.686-8.79-5.763l-103.667-2.127h-.326l-103.637 3.364c-3.789.124-7.175 2.402-8.716 5.866l-29.738 66.89 142.53-.851h.326l142.55-.851z" fill="#2f4859"/><path d="m345.512 256.968c-9.993.058-18.047 8.205-17.989 18.198s8.205 18.047 18.198 17.989 18.047-8.205 17.989-18.198c0-.003 0-.006 0-.009-.063-9.989-8.209-18.038-18.198-17.98z" fill="#ebf0f3"/><path d="m54.971 258.704c-9.993.06-18.045 8.21-17.984 18.203.06 9.993 8.21 18.045 18.203 17.984 9.993-.06 18.044-8.21 17.984-18.202-.061-9.993-8.21-18.045-18.203-17.985z" fill="#ebf0f3"/><path d="m131.61 216.343h131.96v16.472h-131.96z" fill="#3a556a"/><path d="m370.902 190.444c-.436-3.855-3.915-6.626-7.769-6.189-.3.034-.598.087-.892.16l-60.346 14.755c-1.812.445-3.373 1.593-4.338 3.19l-11.955 19.786c-2.002 3.316-.938 7.627 2.378 9.63 1.094.661 2.348 1.01 3.626 1.01h58.961c1.379.01 2.73-.384 3.888-1.133 13.909-9.211 18.262-23.56 16.447-41.209z" fill="#e1e6e9"/><path d="m342.302 196.043c-7.296.298-12.969 6.455-12.67 13.751.298 7.296 6.455 12.969 13.751 12.67 7.295-.298 12.968-6.453 12.671-13.749-.301-7.295-6.456-12.968-13.752-12.672z" fill="#bdbec1"/><path d="m314.29 208.661c-5.549.223-9.867 4.903-9.644 10.452s4.903 9.867 10.452 9.644 9.867-4.903 9.644-10.452c0-.003 0-.005 0-.008-.227-5.546-4.905-9.859-10.452-9.636z" fill="#bdbec1"/><path d="m27.8 190.444c.436-3.855 3.915-6.626 7.769-6.189.3.034.598.087.892.16l60.346 14.755c1.812.445 3.373 1.593 4.338 3.19l11.955 19.786c2.002 3.316.938 7.627-2.378 9.63-1.094.661-2.348 1.01-3.626 1.01h-58.961c-1.379.01-2.73-.384-3.888-1.133-13.91-9.211-18.262-23.56-16.447-41.209z" fill="#e1e6e9"/><path d="m56.4 196.043c7.296.298 12.969 6.455 12.67 13.751-.298 7.296-6.455 12.969-13.751 12.67-7.295-.298-12.968-6.453-12.671-13.749.301-7.295 6.456-12.968 13.752-12.672z" fill="#bdbec1"/><path d="m84.412 208.661c5.549.223 9.867 4.903 9.644 10.452s-4.903 9.867-10.452 9.644-9.867-4.903-9.644-10.452c0-.003 0-.005 0-.008.227-5.546 4.905-9.859 10.452-9.636z" fill="#bdbec1"/></g></svg>