<svg height="512" viewBox="0 0 60 60" width="512" xmlns="http://www.w3.org/2000/svg"><g id="Page-1" fill="none" fill-rule="evenodd"><g id="059---Car-Mechanics" fill-rule="nonzero" transform="translate(-1)"><path id="Shape" d="m18.47 46c1.0007663 1.4750945 1.5339325 3.2174677 1.53 5 .0022764 3.2672946-1.7607659 6.2809114-4.61 7.88-.2864319.1644291-.6386709.1642332-.9249198-.0005143-.2862489-.1647476-.4633663-.4692173-.4650802-.7994857v-5.08c.001173-.8241632-.3367652-1.612512-.9344725-2.1799557-.5977073-.5674436-1.4025365-.8640005-2.2255275-.8200443-1.62864417.1460293-2.86802842 1.5250625-2.84 3.16v4.92c-.00411956.329235-.1816528.6318648-.46702445.7961075s-.63622875.1657224-.92297555.0038925c-2.91802989-1.6249183-4.69439669-4.7339011-4.61254949-8.0728469.08184719-3.3389458 2.00840925-6.3571592 5.00254949-7.8371531v-25.94c-2.99414024-1.4799939-4.9207023-4.4982073-5.00254949-7.83715309-.0818472-3.33894578 1.6945196-6.44792862 4.61254949-8.07284691.2867468-.16182987.6376039-.16035019.92297555.00389248.28537165.16424268.46290489.46687255.46702445.79610752v4.92c-.02802842 1.63493754 1.21135583 3.01397072 2.84 3.16.822991.0439562 1.6278202-.25260071 2.2255275-.82004435s.9356455-1.35579248.9344725-2.17995565v-5.08c.0017139-.33026842.1788313-.63473811.4650802-.79948566s.6384879-.16494342.9249198-.00051434c2.8492341 1.59908862 4.6122764 4.6127054 4.61 7.88.00025.4382198-.0298218.87593176-.09 1.31-.4329189 2.9181406-2.2669779 5.4395049-4.91 6.75v25.88c1.4056596.697066 2.6025869 1.7525696 3.47 3.06z" fill="#9e9e9e"/><path id="Shape" d="m15 42.94v-25.88c2.6430221-1.3104951 4.4770811-3.8318594 4.91-6.75.0601782-.43406824.09025-.8717802.09-1.31.0022764-3.2672946-1.7607659-6.28091138-4.61-7.88-.2864319-.16442908-.6386709-.16423321-.9249198.00051434s-.4633663.46921724-.4650802.79948566v.374c1.9075954 1.70739839 2.9984836 4.14589701 3 6.706.00025.4382198-.0298218.87593176-.09 1.31-.4026118 2.7112245-2.0170923 5.0919117-4.387 6.469-.3183273.1770877-.5177728.5107679-.523.875v24.692c.0052836.3644747.2046641.6984275.523.876 1.1825089.6875667 2.1908769 1.6381084 2.947 2.778 1.0007663 1.4750945 1.5339325 3.2174677 1.53 5-.0015164 2.560103-1.0924046 4.9986016-3 6.706v.374c.0017139.3302684.1788313.6347381.4650802.7994857.2862489.1647475.6384879.1649434.9249198.0005143 2.8492341-1.5990886 4.6122764-4.6127054 4.61-7.88-.0139318-3.4144256-1.9471438-6.5307632-5-8.06z" fill="#707070"/><path id="Shape" d="m52.72 23.28c-7.1993137-.9535106-14.4585238-1.3813094-21.72-1.28-6.68 0-11.92.25-16 .61v-5.55c2.6430221-1.3104951 4.4770811-3.8318594 4.91-6.75 2.61-.17 6.22-.31 11.09-.31 5.0831979-.08243743 10.1665521.1546967 15.22.71 1.0856627.1431564 2.0063012.8681592 2.4 1.89l2.46 6.4z" fill="#00bcd4"/><path id="Shape" d="m43.22 10.71c1.0856627.1431564 2.0063012.8681592 2.4 1.89l2.46 6.4 1.483 3.871c1.164.1333333 2.2163333.2696667 3.157.409l-1.64-4.28-2.46-6.4c-.3936988-1.0218408-1.3143373-1.7468436-2.4-1.89-5.0534479-.5553033-10.1368021-.79243743-15.22-.71-.494 0-.966 0-1.435.005 4.5616702-.03831336 9.12153.1971096 13.655.705z" fill="#00838f"/><path id="Shape" d="m60 26.41.0000022 10.59h-13.0000022s-.85-4.25-3.34-6.48c-.3685661-.3369824-.8506093-.5226584-1.35-.52h-22.62c-.4993907-.0026584-.9814339.1830176-1.35.52-2.49 2.23-3.34 6.48-3.34 6.48v-14.39c4.08-.36 9.32-.61 16-.61 7.2614762-.1013094 14.5206863.3264894 21.72 1.28 1.08.16 2.02.32 2.83.48h.01c1.33.27 2.32.52 3.01.73.8493708.2525433 1.4313045 1.0338809 1.43 1.92z" fill="#f44335"/><path id="Shape" d="m58.57 24.49c-.69-.21-1.68-.46-3.01-.73h-.01c-.81-.16-1.75-.32-2.83-.48-7.1993137-.9535106-14.4585238-1.3813094-21.72-1.28-.452 0-.881 0-1.32.006 6.701493-.0416791 13.3977353.3840201 20.04 1.274 1.08.16 2.02.32 2.83.48h.01c1.33.27 2.32.52 3.01.73.8493708.2525433 1.4313045 1.0338809 1.43 1.92v10.59h3.0000022l-.0000022-10.59c.0013045-.8861191-.5806292-1.6674567-1.43-1.92z" fill="#c81e1e"/><path id="Shape" d="m60 37v2c-.0032948 1.1032019-.8967981 1.9967052-2 2h-43v-4z" fill="#ff9801"/><path id="Shape" d="m57 37v2c-.0032948 1.1032019-.8967981 1.9967052-2 2h3c1.1032019-.0032948 1.9967052-.8967981 2-2v-2z" fill="#f57c00"/><path id="Shape" d="m58 41v3c-.0032948 1.1032019-.8967981 1.9967052-2 2h-37.53c-.8674131-1.3074304-2.0643404-2.362934-3.47-3.06v-1.94z" fill="#9e9e9e"/><path id="Shape" d="m55 41v3c-.0032948 1.1032019-.8967981 1.9967052-2 2h3c1.1032019-.0032948 1.9967052-.8967981 2-2v-3z" fill="#707070"/><path id="Shape" d="m56 46v4c-.0032948 1.1032019-.8967981 1.9967052-2 2h-7c-1.1032019-.0032948-1.9967052-.8967981-2-2v-4z" fill="#607d8b"/><path id="Shape" d="m53 46v4c-.0032948 1.1032019-.8967981 1.9967052-2 2h3c1.1032019-.0032948 1.9967052-.8967981 2-2v-4z" fill="#37474f"/><path id="Shape" d="m47 37h-32s.85-4.25 3.34-6.48c.3685661-.3369824.8506093-.5226584 1.35-.52h22.62c.4993907-.0026584.9814339.1830176 1.35.52 2.49 2.23 3.34 6.48 3.34 6.48z" fill="#9e9e9e"/><path id="Shape" d="m43.66 30.52c-.3685661-.3369824-.8506093-.5226584-1.35-.52l-3-.0000282c.4993907-.0026302.9814339.1830458 1.35.5200282 2.49 2.23 3.34 6.48 3.34 6.48h3s-.85-4.25-3.34-6.48z" fill="#707070"/><path id="Shape" d="m51 29h3c1.1045695 0 2 .8954305 2 2s-.8954305 2-2 2h-2c-1.1045695 0-2-.8954305-2-2v-1c0-.5522847.4477153-1 1-1z" fill="#ffdc00"/><path id="Shape" d="m57 21.5c.001185.6634943-.2614303 1.3002463-.73 1.77-.2046825.2054109-.4453385.3714975-.71.49h-.01c-.81-.16-1.75-.32-2.83-.48l-1.64-4.28h3.42c1.3807119 0 2.5 1.1192881 2.5 2.5z" fill="#c81e1e"/><path id="Shape" d="m23 16c-.4043959-.0000863-.7689341-.2437275-.923678-.6173454-.1547439-.373618-.0692299-.8036603.216678-1.0896546l1-1c.3923789-.3789722 1.0160848-.3735524 1.4018186.0121814s.3911536 1.0094397.0121814 1.4018186l-1 1c-.1874927.1875494-.4418052.2929434-.707.293z" fill="#fff"/><path id="Shape" d="m25 19c-.4043959-.0000863-.7689341-.2437275-.923678-.6173454-.1547439-.373618-.0692299-.8036603.216678-1.0896546l4-4c.3923789-.3789722 1.0160848-.3735524 1.4018186.0121814s.3911536 1.0094397.0121814 1.4018186l-4 4c-.1874927.1875494-.4418052.2929434-.707.293z" fill="#fff"/><g fill="#000"><path id="Shape" d="m58.858 23.534c-.368-.11-.806-.229-1.307-.352.609598-1.0796109.5976261-2.4022716-.0314142-3.4706711-.6290404-1.0683995-1.779794-1.720581-3.0195858-1.7113289h-2.736l-2.213-5.766c-.5272984-1.3598395-1.7540654-2.32400178-3.2-2.515-5.0967896-.56223348-10.2239717-.80237705-15.351-.719-3.742 0-7.087.087-10.016.249 0-.083.016-.163.016-.247.0012561-3.62663387-1.9547502-6.97164949-5.116-8.749-.5961499-.33969361-1.3278708-.33715056-1.9216452.00667856-.5937744.34382913-.9602183.97718595-.9623548 1.66332144v5.077c.0029789.54684145-.2203368 1.07056571-.617 1.447-.4025492.3719017-.9352325.57053546-1.483.553-1.09842149-.11526821-1.92476874-1.05382472-1.9-2.158v-4.919c.00339502-.6772481-.35396402-1.30510279-.938-1.648-.59446731-.35380701-1.33259485-.36333861-1.936-.025-3.14358951 1.74872224-5.10312244 5.05360867-5.12920826 8.65076088-.02608583 3.59715222 1.88531079 6.93010982 5.00320826 8.72423912v24.75c-3.11903773 1.7945317-5.03093536 5.1287872-5.0042258 8.7271239s1.9878925 6.9038433 5.1332258 8.6518761c.60341817.3332393 1.33822495.3218233 1.931-.03.58449517-.342213.9426228-.9696984.94-1.647v-4.919c-.02630561-1.1003821.7938797-2.0378608 1.888-2.158.5495578-.0308243 1.087527.1662015 1.4871866.544667.3996595.3784655.6256772.9049121.6248134 1.455333v5.079c-.0036845.6841137.3606966 1.3173883.954 1.658.5919726.3506231 1.3266326.3563507 1.924.015 4.4920413-2.5187557 6.3452161-8.0311619 4.287-12.752h23.835v3c0 1.6568542 1.3431458 3 3 3h7c1.6568542 0 3-1.3431458 3-3v-3.184c1.1943509-.4222546 1.9947486-1.5492146 2-2.816v-2.184c1.1943509-.4222546 1.9947486-1.5492146 2-2.816v-12.591c.007469-1.3289205-.8664916-2.5019535-2.142-2.875zm.142 2.875.0000201 9.591h-11.2170201c-.5762629-2.3445447-1.766756-4.4932311-3.449-6.225-.554875-.4996463-1.2753193-.775781-2.022-.775h-22.624c-.7462211-.000903-1.4662827.2748652-2.021.774-.6486272.5972919-1.2098155 1.283039-1.667 2.037v-8.277c4.384-.353 9.418-.534 15-.534 17.208 0 24.814 1.714 27.287 2.45.4249442.1248813.7158047.5160948.713.959zm-13.3 9.591h-29.4c.4901942-1.780034 1.4184403-3.4089341 2.7-4.738.1887207-.1699361.4340473-.2633599.688-.262h22.624c.253052-.0003394.4971957.0933975.685.263 1.2827092 1.3283008 2.2120251 2.9569243 2.703 4.737zm8.8-16c.6082265-.0014982 1.1571498.3644413 1.3897134.9264518.2325637.5620106.1027251 1.2088262-.3287134 1.6375482-.0641019.0536358-.1330673.1011751-.206.142-.578-.111-1.218-.222-1.912-.332l-.911-2.3740046zm-23.5-9c5.0407003-.0833339 10.0816518.1504609 15.093.7.7205786.0967584 1.3313801.5780424 1.594 1.256l3.49 9.094c-6.6970572-.7720055-13.435985-1.1226956-20.177-1.05-5.567 0-10.6.179-15 .527v-3.867c2.3987057-1.377826 4.1121852-3.6957004 4.726-6.393 2.974-.175 6.411-.267 10.274-.267zm-16 46.948v-4.948c.001589-1.0991897-.449222-2.1505963-1.2465361-2.9072407-.7973141-.7566445-1.870862-1.151842-2.9684639-1.0927593-2.16467536.162974-3.82560033 1.987578-3.785 4.158v4.79c-2.55981653-1.4779821-4.09746548-4.2457502-4-7.2.13118252-2.9304546 1.83213535-5.5625357 4.45-6.886.33724233-.1699375.54998922-.5153611.55-.893v-25.938c-.00019759-.3770573-.21246729-.7219472-.549-.892-2.61794994-1.3230227-4.31926674-3.9546933-4.451-6.885-.09746548-2.95424984 1.44018347-5.72201795 4-7.2v4.79c-.03549983 2.1737017 1.63181472 3.9972173 3.8 4.156 1.0950744.0548232 2.1646458-.3422754 2.9586238-1.09844499.7939781-.75616957 1.2427477-1.80510999 1.2413762-2.90155501v-4.948c2.553368 1.4787145 4.0880908 4.24048632 3.995315 7.18966883-.0927757 2.94918247-1.7980525 5.60903007-4.439315 6.92433117-.3418354.1693829-.5575143.5185033-.556.9v25.872c-.0015143.3814967.2141646.7306171.556.9 2.6392278 1.3159919 4.342847 3.9747411 4.4356015 6.9224104.0927544 2.9476694-1.440334 5.7082681-3.9916015 7.1875896zm40-7.948c0 .5522847-.4477153 1-1 1h-7c-.5522847 0-1-.4477153-1-1v-3h9zm1-5h-37c-.8096592-1.0805737-1.830273-1.9855179-3-2.66v-.34h41v2c0 .5522847-.4477153 1-1 1zm2-5h-42v-2h43v1c0 .5522847-.4477153 1-1 1z"/><path id="Shape" d="m52 34h2c1.6568542 0 3-1.3431458 3-3s-1.3431458-3-3-3h-3c-1.1045695 0-2 .8954305-2 2v1c0 1.6568542 1.3431458 3 3 3zm-1-4h3c.5522847 0 1 .4477153 1 1s-.4477153 1-1 1h-2c-.5522847 0-1-.4477153-1-1z"/><path id="Shape" d="m28 26c0 .5522847.4477153 1 1 1h4c.5522847 0 1-.4477153 1-1s-.4477153-1-1-1h-4c-.5522847 0-1 .4477153-1 1z"/></g></g></g></svg>