<svg height="512pt" viewBox="-69 0 512 512" width="512pt" xmlns="http://www.w3.org/2000/svg"><path d="m160.902344 277.695312c6.4375 1.09375 11.152344 6.660157 11.152344 13.1875v-.023437c0-6.472656 4.628906-12.070313 11.003906-13.164063 24.878906-4.265624 30.535156-22.742187 31.722656-28.71875l-2.058594-.800781c-2.449218-.925781-4.132812-3.3125-4.140625-6.011719l-.066406-28.566406c-10.246094 7.0625-22.511719 11.074219-35.554687 11.074219-13.320313 0-25.542969-3.539063-35.859376-10.128906v27.582031c0 2.667969-1.636718 5.0625-4.125 6.027344l-2.757812 1.066406c.65625 4.734375 4.894531 24.097656 30.683594 28.476562zm0 0" fill="#ffbeab"/><path d="m168.054688 224.507812c-11.417969-.761718-21.914063-4.191406-30.953126-9.964843v27.582031c0 2.667969-1.636718 5.0625-4.125 6.027344l-2.757812 1.066406c.65625 4.734375 4.894531 24.09375 30.683594 28.476562 2.789062.472657 5.25 1.789063 7.152344 3.65625zm0 0" fill="#f7af9f"/><path d="m245.6875 117.332031c-1.726562.933594-3.699219 1.464844-5.785156 1.464844-1.660156 0-3.277344-.179687-4.839844-.511719v46.566406c0 .519532-.027344 1.035157-.042969 1.550782 16.949219 2.566406 30.21875-9.679688 30.21875-24.714844 0-11.71875-8.03125-21.6875-19.550781-24.355469zm0 0" fill="#ffbeab"/><path d="m255.0625 121.621094c-2.722656-1.992188-5.886719-3.480469-9.375-4.289063-1.726562.933594-3.699219 1.464844-5.785156 1.464844-1.660156 0-3.277344-.179687-4.839844-.511719v46.566406c0 .519532-.027344 1.035157-.042969 1.550782 7.761719 1.175781 14.746094-.761719 20.042969-4.644532zm0 0" fill="#f7af9f"/><path d="m109.28125 118.421875h-8.089844c-1.488281 0-2.929687-.1875-4.320312-.503906-10.007813 3.472656-18.003906 12.476562-18.003906 23.570312 0 15.136719 13.34375 27.5 30.453124 24.910157-.011718-.519532-.039062-1.039063-.039062-1.558594zm0 0" fill="#ffbeab"/><path d="m109.28125 161.835938c-6.417969-4.625-10.414062-12.066407-10.414062-20.34375 0-8.078126 4.25-15.035157 10.414062-19.570313v-3.5h-8.089844c-1.488281 0-2.929687-.1875-4.320312-.503906-10.007813 3.472656-18.003906 12.476562-18.003906 23.574219 0 15.132812 13.347656 27.496093 30.453124 24.90625-.011718-.519532-.039062-1.039063-.039062-1.558594zm0 0" fill="#f7af9f"/><path d="m217.597656 90.871094h-3.085937c-7.691407 13.152344-21.933594 22-38.265625 22h-67.878906v52.023437c0 32.808594 25.707031 62.777344 64.59375 62.777344 34.617187 0 62.78125-28.160156 62.78125-62.777344v-52.519531c-10.0625-2.132812-17.734376-10.929688-18.144532-21.503906zm0 0" fill="#ffcdbf"/><path d="m138.050781 164.894531v-52.023437h-29.683593v52.023437c0 32.808594 25.707031 62.777344 64.59375 62.777344 4.933593 0 9.726562-.589844 14.335937-1.671875-30.152344-6.699219-49.246094-32.839844-49.246094-61.105469zm0 0" fill="#ffbeab"/><path d="m231.660156 37.238281c-5.996094.460938-11.5-3.3125-12.65625-9.214843-1.945312-9.945313-6.867187-19.8125-26.097656-19.8125-6.5625 0-59.195312 0-66.71875 0-24.484375 0-44.335938 19.851562-44.335938 44.335937v48.660156c0 10.308594 8.359376 18.667969 18.667969 18.667969h75.722657c16.9375 0 31.648437-9.503906 39.113281-23.460938.578125-1.082031 2.21875-.660156 2.21875.566407 0 12.589843 10.304687 22.894531 22.894531 22.894531 6.601562 0 12-5.402344 12-12v-50.777344c0-11.964844-10.433594-20.660156-20.808594-19.859375zm0 0" fill="#576574"/><path d="m112.109375 101.207031v-48.660156c0-24.484375 19.851563-44.335937 44.335937-44.335937-13.71875 0-26.789062 0-30.257812 0-24.484375 0-44.335938 19.851562-44.335938 44.335937v48.660156c0 10.308594 8.359376 18.667969 18.667969 18.667969h30.257813c-10.308594 0-18.667969-8.359375-18.667969-18.667969zm0 0" fill="#3e4b5a"/><path d="m302.976562 283.132812-63.15625-24.460937c-19.445312 45.953125-67.738281 42.539063-67.738281 42.539063s-47.824219 4.421874-67.035156-42.230469l-62.300781 24.152343s-34.9375 14.363282-34.9375 54.191407v156.242187c0 6.433594 5.210937 11.644532 11.640625 11.644532h262.726562l50.765625-130.308594c1.09375-.632813 1.769532-1.800782 1.769532-3.0625v-54.25c-8.632813-24.960938-31.734376-34.457032-31.734376-34.457032zm0 0" fill="#ff6b6b"/><path d="m37.808594 493.566406v-172.246094c0-21.316406 10.011718-35.332031 19.3125-43.761718l-14.375 5.574218s-34.9375 14.363282-34.9375 54.191407v156.242187c0 6.433594 5.210937 11.644532 11.644531 11.644532h30c-6.429687 0-11.644531-5.210938-11.644531-11.644532zm0 0" fill="#ee5253"/><path d="m61.976562 429.175781h220.199219v-29.226562c.003907.003906.007813.007812.011719.007812-10.835938-6.375-19.371094-16.289062-23.980469-28.121093h-196.230469zm0 0" fill="#feca57"/><path d="m61.976562 371.839844h34.394532v57.335937h-34.394532zm0 0" fill="#f4b537"/><path d="m161.683594 275.675781c-27.441406-4.664062-28.707032-27.523437-28.707032-27.523437l-28.957031 11.222656c18.476563 49.425781 68.0625 44.835938 68.0625 44.835938v-16.242188c0-6.085938-4.398437-11.273438-10.398437-12.292969zm0 0" fill="#ee5253"/><path d="m128.78125 271.148438c-3.453125-5.988282-.640625-13.660157 5.804688-16.160157-1.441407-3.9375-1.609376-6.839843-1.609376-6.839843l-28.957031 11.226562c18.476563 49.421875 68.0625 44.835938 68.0625 44.835938v-1.683594c-13.640625-3.023438-31.535156-10.972656-43.300781-31.378906zm0 0" fill="#d83941"/><path d="m212.722656 248.175781c-.21875-.082031-.421875-.1875-.628906-.292969-.621094 4.03125-4.890625 23.53125-29.753906 27.792969-5.945313 1.019531-10.257813 6.238281-10.257813 12.269531v16.265626s50.097657 3.546874 68.789063-45.132813zm0 0" fill="#ee5253"/><path d="m191.332031 287.945312c0-6.03125 4.3125-11.25 10.257813-12.269531 17.578125-3.011719 24.855468-13.636719 27.835937-21.03125l-16.703125-6.46875c-.21875-.082031-.421875-.1875-.628906-.292969-.621094 4.03125-4.890625 23.53125-29.753906 27.792969-5.945313 1.019531-10.257813 6.238281-10.257813 12.269531v16.265626s8.226563.582031 19.25-1.964844zm0 0" fill="#d83941"/><path d="m126.550781 322.167969h-21.414062c-6.328125 0-11.503907 5.175781-11.503907 11.5v4c0 6.328125 5.175782 11.503906 11.503907 11.503906h21.414062c6.324219 0 11.5-5.175781 11.5-11.503906v-4c0-6.324219-5.175781-11.5-11.5-11.5zm0 0" fill="#e4eaf8"/><path d="m119.605469 337.667969v-4c0-5.546875 3.980469-10.207031 9.222656-11.269531-.738281-.148438-1.5-.230469-2.277344-.230469h-21.414062c-6.328125 0-11.503907 5.175781-11.503907 11.5v4c0 6.328125 5.175782 11.503906 11.503907 11.503906h21.414062c.78125 0 1.539063-.082031 2.277344-.230469-5.242187-1.066406-9.222656-5.726562-9.222656-11.273437zm0 0" fill="#c7d2e5"/><path d="m308.988281 407.621094c-9.742187-.230469-18.890625-3.007813-26.8125-7.667969v105.257813h47.707031c4.757813 0 8.617188-3.859376 8.617188-8.621094v-96.558594c-8.628906 5.042969-18.734375 7.84375-29.511719 7.589844zm0 0" fill="#e4eaf8"/><path d="m310.339844 407.628906c-.449219 0-.898438 0-1.351563-.007812-9.742187-.230469-18.890625-3.007813-26.8125-7.667969v105.257813h28.164063zm0 0" fill="#c7d2e5"/><path d="m308.988281 409.75c-29.675781-.710938-53.871093-25.433594-54.539062-55.722656-.453125-20.59375 9.785156-38.773438 25.441406-49.171875 2.613281-1.734375 6.078125.238281 6.078125 3.425781v49.222656c0 1.289063.671875 2.480469 1.769531 3.125l20.832031 12.277344c1.09375.644531 2.441407.644531 3.535157 0l20.835937-12.277344c1.09375-.644531 1.769532-1.835937 1.769532-3.125v-49.21875c0-3.238281 3.519531-5.136718 6.171874-3.363281 15.269532 10.183594 25.363282 27.785156 25.363282 47.789063-.003906 31.96875-25.765625 57.796874-57.257813 57.039062zm0 0" fill="#c7d2e5"/><path d="m282.613281 354.027344c-.164062-7.339844 1.039063-14.367188 3.355469-20.851563v-24.894531c0-3.183594-3.464844-5.160156-6.078125-3.425781-15.65625 10.398437-25.894531 28.578125-25.441406 49.171875.667969 30.289062 24.863281 55.011718 54.539062 55.722656 5.355469.128906 10.535157-.527344 15.457031-1.832031-23.589843-6.300781-41.265624-28.066407-41.832031-53.890625zm0 0" fill="#bac7db"/><path d="m19.140625 512h310.433594c8.886719 0 16.121093-7.230469 16.121093-16.121094v-26.507812c0-4.144532-3.359374-7.5-7.5-7.5-4.144531 0-7.503906 3.355468-7.503906 7.5v26.507812c0 .617188-.5 1.121094-1.117187 1.121094h-12.042969v-60.535156c0-4.144532-3.355469-7.5-7.5-7.5s-7.5 3.355468-7.5 7.5v60.535156h-13.164062v-86.058594c13.410156 4.648438 28.09375 4.601563 41.328124.050782v23.375c0 4.140624 3.355469 7.5 7.5 7.5 4.140626 0 7.5-3.359376 7.5-7.5v-30.921876c17.335938-11.851562 27.742188-31.136718 27.742188-52.425781 0-21.480469-10.753906-41.332031-28.757812-53.101562-3.550782-2.320313-8.066407-2.511719-11.78125-.496094-.09375.046875-.171876.109375-.261719.164063-11.308594-15.429688-26.292969-21.765626-27.113281-22.101563-.046876-.019531-.097657-.039063-.144532-.058594l-62.105468-24.050781-27.5-10.652344-.054688-21.058594c14.234375-11.078124 24.109375-27.492187 26.585938-46.21875 17.390624-1.226562 30.128906-15.324218 30.128906-31.90625 0-11.003906-5.578125-20.847656-14.390625-26.617187 1.039062-2.382813 1.621093-5.003906 1.621093-7.757813v-50.777343c0-16.398438-14.207031-28.464844-28.886718-27.339844-2.015625.160156-4.273438-.886719-4.71875-3.175781-3.40625-17.410156-14.351563-25.871094-33.457032-25.871094h-3.355468c-4.144532 0-7.5 3.359375-7.5 7.5 0 4.144531 3.355468 7.5 7.5 7.5h3.355468c14.816407 0 17.316407 6.503906 18.734376 13.75 1.847656 9.457031 10.675781 16.015625 20.59375 15.253906 6.019531-.457031 12.730468 4.789063 12.730468 12.382813v50.773437c0 8.914063-19.890625 3.996094-19.890625-10.890625 0-3.992187-2.707031-7.457031-6.578125-8.429687-3.863281-.96875-7.878906.808594-9.761718 4.324218-6.273438 11.734376-18.78125 19.496094-32.492188 19.496094-15.601562 0-60.40625 0-75.726562 0-5.984376 0-11.164063-4.871094-11.164063-11.167968v-48.65625c0-20.3125 16.523437-36.835938 36.832031-36.835938h28.363282c4.144531 0 7.5-3.355469 7.5-7.5 0-4.140625-3.355469-7.5-7.5-7.5h-28.363282c-28.582031 0-51.835937 23.253906-51.835937 51.835938v48.65625c0 7.097656 2.84375 13.539062 7.445312 18.257812-6.503906 5.914062-10.429687 14.082031-10.429687 22.789062 0 16.59375 12.746094 30.675782 30.117187 31.902344 1.953125 14.921875 8.597657 28.753906 19.222657 39.667969 2.753906 2.828125 5.734374 5.378906 8.894531 7.671875v19.921875l-89.566407 34.722656c-.046874.019531-.09375.039063-.140624.058594-1.617188.664063-39.585938 16.78125-39.585938 61.125v156.246094c0 10.558593 8.585938 19.144531 19.140625 19.144531zm50.027344-133.375h95.105469v42.335938h-95.105469zm0 57.339844h95.105469v61.035156h-95.105469zm110.105469 0h95.09375v61.035156h-95.09375zm95.09375-15h-95.09375v-42.335938h73.703124c4.679688 9.605469 11.960938 18.28125 21.390626 24.746094zm67.535156-106.378906c10.457031 9.132812 16.53125 22.324218 16.53125 36.433593 0 27.117188-22.25 49.035157-49.574219 48.390625-26.023437-.613281-48.082031-22.964844-47.207031-49.988281.441406-13.605469 6.464844-26.089844 16.507812-34.839844v41.136719c0 3.929688 2.113282 7.589844 5.515625 9.554688l20.839844 12.03125c3.402344 1.964843 7.628906 1.964843 11.03125 0 15.265625-8.8125 12.148437-7.011719 20.839844-12.03125 3.261719-1.882813 5.515625-5.546876 5.515625-9.554688zm-15 3.601562v35.238281l-16.871094 9.742188-16.871094-9.742188v-45.9375c0-4.472656-2.738281-8.460937-6.015625-10.097656-3.640625-1.976563-8.15625-1.816406-11.652343.453125-22.390626 14.570312-32.683594 40.699219-27.589844 65.78125h-68.625v-52.765625c27.878906-1.96875 52.453125-16.484375 65.289062-42.898437l55.277344 21.40625c1.132812.5 19.589844 8.894531 27.058594 28.820312zm-199.476563-60.671875c3.898438 9.914063 13.367188 21.558594 32.695313 24.84375 2.40625.40625 4.152344 2.46875 4.152344 4.898437v8.703126c-12.058594-.847657-37.144532-6-50.59375-33.113282zm89.21875-.367187 13.878907 5.375c-13.695313 26.933593-38.988282 32.347656-51.246094 33.339843v-8.628906c0-2.425781 1.691406-4.476563 4.019531-4.878906 20.71875-3.550781 29.597656-16.171875 33.347656-25.207031zm26.289063-98.871094v-31.8125c1.066406-.15625 2.601562-.542969 3.328125-.789063 6.675781 2.457031 11.167969 8.703125 11.167969 15.863281 0 8.132813-5.800782 15.324219-14.496094 16.738282zm-156.875-16.738282c0-7.199218 5.15625-12.574218 10.738281-15.105468 1.335937.175781 2.457031.230468 3.761719.230468v31.613282c-8.71875-1.414063-14.5-8.621094-14.5-16.738282zm29.5 22.644532v-37.519532h60.378906c14.367188 0 27.816406-5.914062 37.457031-16.003906 3.046875 5.675782 8.1875 10.628906 14.539063 13.429688 0 46.515625.011718 39.019531-.039063 41.492187-.75 29.980469-25.398437 53.878907-55.242187 53.878907-34.121094 0-57.09375-26.425782-57.09375-55.277344zm85.179687 64.417968.035157 12.875c.007812 3.007813 1.007812 5.867188 2.710937 8.203126-1.90625 5.859374-7.339844 15.253906-22.71875 17.890624-3.410156.585938-6.480469 2.027344-9.027344 4.066407-2.570312-2.039063-5.664062-3.484375-9.105469-4.066407-15.332031-2.605468-20.222656-11.816406-21.769531-17.027343 2.152344-2.492188 3.433594-5.722657 3.433594-9.128907l-.003906-12.328124c17.558593 7.0625 38.347656 7.433593 56.445312-.484376zm-185.738281 108.011719c0-33.777343 28.507812-46.492187 30.246094-47.238281l54.402344-21.089844c12.566406 26.507813 36.742187 41.136719 64.625 42.699219v52.640625h-95.105469v-8.414062c0-4.140626-3.355469-7.5-7.5-7.5s-7.5 3.359374-7.5 7.5v141.789062h-35.027344c-2.28125 0-4.140625-1.859375-4.140625-4.144531zm0 0"/><path d="m104.828125 355.960938h21.414063c10.476562 0 19-8.523438 19-19.003907v-4c0-10.476562-8.523438-19-19-19h-21.414063c-10.476563 0-19 8.523438-19 19v4c0 10.480469 8.523437 19.003907 19 19.003907zm-4-23.003907c0-2.167969 1.832031-4 4-4h21.414063c2.167968 0 4 1.832031 4 4v4c0 2.167969-1.832032 4-4 4h-21.414063c-2.167969 0-4-1.832031-4-4zm0 0"/><path d="m220.3125 327.457031h-16c-4.144531 0-7.5 3.359375-7.5 7.5 0 4.144531 3.355469 7.5 7.5 7.5h16c4.144531 0 7.5-3.355469 7.5-7.5 0-4.140625-3.359375-7.5-7.5-7.5zm0 0"/></svg>