<svg id="Layer_1" enable-background="new 0 0 512 512" height="512" viewBox="0 0 512 512" width="512" xmlns="http://www.w3.org/2000/svg"><g><g><path d="m509.072 35.436c-2.156-6.301-5.155-11.416-9.163-15.627-4.001-4.446-9.32-7.87-15.815-10.178-6.01-2.135-12.892-3.217-20.452-3.217h-33.705c-10.099 0-19.066 1.05-26.697 3.132-8.338 2.316-15.662 6.199-21.77 11.542-5.835 5.107-10.903 11.621-15.494 19.912-.034.062-.067.124-.101.187-4.136 7.859-7.856 17.142-11.061 27.594l-97.521 259.828-38.972-107.756c-1.878-5.193-7.613-7.883-12.805-6.003-5.194 1.878-7.881 7.611-6.003 12.805l47.46 131.229c1.432 3.96 5.192 6.599 9.404 6.599h1.51c4.167 0 7.897-2.584 9.362-6.486l106.399-283.48c.074-.197.142-.396.203-.598 2.847-9.335 6.101-17.518 9.674-24.326 3.389-6.103 7.129-10.965 11.115-14.454 3.831-3.353 8.525-5.816 13.906-7.311 5.872-1.602 13.068-2.415 21.39-2.415h33.705c5.273 0 9.902.694 13.756 2.063 3.355 1.192 5.943 2.795 7.694 4.766.088.098.177.195.268.29 2.009 2.088 3.575 4.83 4.79 8.378 1.229 3.592 1.852 8.046 1.852 13.24v424.966c0 .34-.048.567-.106.725-.296.22-1.045.701-2.544 1.25-2.171.685-6.026 1.647-12.26 2.443-5.467.697-12.615 1.051-21.247 1.051-8.465 0-15.528-.354-20.995-1.051-4.807-.614-8.975-1.451-12.075-2.425-1.729-.662-2.435-1.22-2.591-1.355-.244-.334-.244-.502-.244-.638v-301.103c0-4.868-3.505-9.028-8.303-9.855-4.797-.823-9.492 1.922-11.121 6.509l-106.776 300.727c-.035.099-.068.198-.101.298-.697 2.181-1.544 3.155-2.122 3.701-.742.701-2.083 1.746-5.161 2.752-2.328.69-6.299 1.578-12.127 1.958-5.156.33-11.747.483-20.743.483-8.58 0-15.038-.262-20.323-.824-6.387-.68-10.163-1.715-12.205-2.463-3.07-1.126-4.858-2.226-5.856-3.005-.72-.729-1.2-1.502-1.428-2.302-.048-.166-.1-.331-.155-.494l-101.997-297.596c-1.585-4.625-6.276-7.425-11.104-6.622-4.822.804-8.356 4.976-8.356 9.864v297.973c0 .336-.046.561-.103.717-.299.216-1.045.682-2.534 1.211-3.45 1.019-7.671 1.857-12.552 2.494-5.333.695-12.387 1.048-20.968 1.048-8.465 0-15.529-.354-20.995-1.051-6.235-.796-10.091-1.759-12.261-2.443-1.5-.549-2.249-1.03-2.544-1.25-.058-.156-.106-.383-.106-.725v-424.967c0-9.907 2.292-17.015 7.007-21.73 4.78-4.78 11.005-7.006 19.591-7.006h31.693c10.762 0 19.812.842 26.93 2.511 6.989 1.612 12.705 4.068 17.472 7.506 4.791 3.55 8.785 8.177 11.871 13.752 3.675 6.639 6.849 14.677 9.434 23.891.066.236.141.47.225.7l24.675 68.225c1.878 5.193 7.612 7.88 12.805 6.003 5.194-1.878 7.881-7.611 6.003-12.805l-24.551-67.883c-2.985-10.557-6.716-19.914-11.091-27.817-4.494-8.118-10.389-14.906-17.52-20.178-.027-.02-.055-.04-.083-.06-6.887-4.982-15.211-8.623-24.707-10.814-8.579-2.012-19.164-3.031-31.461-3.031h-31.693c-13.849 0-25.198 4.328-33.734 12.865-8.536 8.536-12.864 20.605-12.864 35.871v424.966c0 4.479 1.305 8.743 3.773 12.332.057.083.115.165.175.246 2.606 3.555 6.684 6.342 12.121 8.284.101.036.202.07.304.103 4.277 1.375 9.662 2.482 16.006 3.292 6.303.805 14.218 1.212 23.527 1.212 9.575 0 17.28-.397 23.554-1.216 6.044-.788 11.4-1.875 15.918-3.23.13-.039.259-.08.387-.125 5.551-1.915 9.706-4.714 12.351-8.32.059-.081.118-.163.175-.246 2.468-3.589 3.772-7.853 3.772-12.332v-237.953l82.464 240.605c1.263 4.219 3.707 8.12 7.081 11.295.146.138.297.271.451.399 3.181 2.651 7.111 4.814 12.015 6.612 4.507 1.652 10.218 2.854 16.973 3.573 6.005.639 13.135.937 22.439.937 9.43 0 16.427-.166 22.032-.524 6.174-.403 11.943-1.368 16.686-2.791.065-.02.131-.04.196-.061 5.259-1.697 9.463-4.078 12.849-7.276 3.388-3.198 5.805-7.119 7.387-11.985l87.304-245.884v243.052c0 4.55 1.464 8.914 4.233 12.625 2.566 3.477 6.554 6.235 11.852 8.198.137.051.274.098.414.143 4.332 1.392 9.675 2.5 15.88 3.292 6.303.805 14.218 1.212 23.526 1.212 9.476 0 17.476-.408 23.778-1.212 6.343-.81 11.728-1.917 16.005-3.292.103-.033.203-.067.304-.103 5.437-1.942 9.515-4.729 12.121-8.283.061-.083.12-.166.178-.25 2.468-3.59 3.771-7.853 3.771-12.329v-424.966c-.002-7.401-.987-14.033-2.93-19.715z"/><path d="m183.612 181.925c0 5.523 4.48 10 10.003 10s10-4.477 10-10-4.477-10-10-10h-.007c-5.523 0-9.996 4.477-9.996 10z"/></g></g></svg>