<?xml version="1.0" encoding="iso-8859-1"?>
<!-- Generator: Adobe Illustrator 19.0.0, SVG Export Plug-In . SVG Version: 6.00 Build 0)  -->
<svg version="1.1" id="Capa_1" xmlns="http://www.w3.org/2000/svg" xmlns:xlink="http://www.w3.org/1999/xlink" x="0px" y="0px"
	 viewBox="0 0 512 512" style="enable-background:new 0 0 512 512;" xml:space="preserve">
<path style="fill:#FFBC05;" d="M211.862,88.276h-35.31v35.31h35.31c0,19.5-15.81,35.31-35.31,35.31l0,0
	c-19.5,0-35.31-15.81-35.31-35.31H17.655C7.901,123.586,0,115.686,0,105.931l0,0c0-9.754,7.901-17.655,17.655-17.655h123.586
	c0-19.5,15.81-35.31,35.31-35.31l0,0C196.052,52.966,211.862,68.776,211.862,88.276z"/>
<polygon style="fill:#23AEC8;" points="512,308.966 512,512 176.552,512 176.552,397.241 141.241,397.241 141.241,308.966 "/>
<path style="fill:#FBDEBA;" d="M88.276,123.586H35.31v203.034c0,29.255,23.711,52.966,52.966,52.966h52.966v-52.966h-35.31
	c-9.754,0-17.655-7.901-17.655-17.655V123.586z"/>
<polygon style="fill:#1967A3;" points="273.655,308.966 273.655,397.241 414.897,397.241 414.897,308.966 450.207,308.966 
	450.207,397.241 512,459.034 512,512 176.552,512 176.552,459.034 238.345,397.241 238.345,308.966 "/>
<path style="fill:#FBDEBA;" d="M308.966,291.31v35.31c0,9.366,3.725,18.344,10.346,24.964l0,0c13.789,13.789,36.14,13.789,49.929,0
	l0,0c6.621-6.621,10.346-15.598,10.346-24.964v-35.31H308.966z"/>
<path style="fill:#E2B186;" d="M308.966,296.28v-4.97h70.621v35.31c-0.053,8.377-3.09,16.463-8.563,22.802
	C343.534,341.681,320.839,322.251,308.966,296.28z"/>
<path style="fill:#FBDEBA;" d="M441.379,105.931v97.103c0,53.628-43.476,97.103-97.103,97.103l0,0l0,0
	c-53.628,0-97.103-43.476-97.103-97.103v-97.103H441.379z"/>
<g>
	<path style="fill:#2B2733;" d="M326.621,203.034h-17.655v-8.828c0-4.873-3.955-8.828-8.828-8.828c-4.873,0-8.828,3.955-8.828,8.828
		v8.828h-17.655v-8.828c0-14.627,11.855-26.483,26.483-26.483s26.483,11.855,26.483,26.483V203.034z"/>
	<path style="fill:#2B2733;" d="M414.897,203.034h-17.655v-8.828c0-4.873-3.955-8.828-8.828-8.828s-8.828,3.955-8.828,8.828v8.828
		h-17.655v-8.828c0-14.627,11.855-26.483,26.483-26.483s26.483,11.855,26.483,26.483V203.034z"/>
</g>
<path style="fill:#D12136;" d="M317.793,229.517h52.966v8.828c0,14.627-11.855,26.483-26.483,26.483l0,0
	c-14.627,0-26.483-11.855-26.483-26.483V229.517z"/>
<g>
	<path style="fill:#FBDEBA;" d="M247.172,176.552h-17.655c-9.754,0-17.655,7.901-17.655,17.655l0,0
		c0,9.754,7.901,17.655,17.655,17.655h17.655V176.552z"/>
	<path style="fill:#FBDEBA;" d="M441.379,176.552h17.655c9.754,0,17.655,7.901,17.655,17.655l0,0
		c0,9.754-7.901,17.655-17.655,17.655h-17.655V176.552z"/>
</g>
<path style="fill:#D12136;" d="M247.172,105.931h194.207v-8.828C441.379,43.476,397.903,0,344.276,0l0,0
	c-53.628,0-97.103,43.476-97.103,97.103V105.931z"/>
<path style="fill:#9C1928;" d="M353.103,105.931L353.103,105.931c0,19.5,15.81,35.31,35.31,35.31h105.931
	c0-19.5-15.81-35.31-35.31-35.31H353.103z"/>
<rect x="35.31" y="61.793" style="fill:#FBDEBA;" width="52.966" height="35.31"/>
<path style="fill:#FFBC05;" d="M247.172,150.069h26.483c24.373,0,44.138-19.765,44.138-44.138h-70.621V150.069z"/>
<g>
	<path style="fill:#E38100;" d="M176.552,90.668c-13.771,13.462-29.652,24.585-47.016,32.918h11.705c0,19.5,15.81,35.31,35.31,35.31
		s35.31-15.81,35.31-35.31h-35.31V90.668z"/>
	<path style="fill:#E38100;" d="M200.121,62.155c-6.215,9.357-13.303,18.105-21.177,26.121h32.918
		C211.844,78.292,207.572,68.793,200.121,62.155z"/>
</g>
<g>
</g>
<g>
</g>
<g>
</g>
<g>
</g>
<g>
</g>
<g>
</g>
<g>
</g>
<g>
</g>
<g>
</g>
<g>
</g>
<g>
</g>
<g>
</g>
<g>
</g>
<g>
</g>
<g>
</g>
</svg>
