<?xml version="1.0" encoding="iso-8859-1"?>
<!-- Generator: Adobe Illustrator 19.0.0, SVG Export Plug-In . SVG Version: 6.00 Build 0)  -->
<svg version="1.1" id="Capa_1" xmlns="http://www.w3.org/2000/svg" xmlns:xlink="http://www.w3.org/1999/xlink" x="0px" y="0px"
	 viewBox="0 0 480 480" style="enable-background:new 0 0 480 480;" xml:space="preserve">
<g>
	<g>
		<path d="M280,160c-13.255,0-24,10.745-24,24v8h16v-8c0-4.418,3.582-8,8-8s8,3.582,8,8v8h16v-8C304,170.745,293.255,160,280,160z"
			/>
	</g>
</g>
<g>
	<g>
		<path d="M360,160c-13.255,0-24,10.745-24,24v8h16v-8c0-4.418,3.582-8,8-8s8,3.582,8,8v8h16v-8C384,170.745,373.255,160,360,160z"
			/>
	</g>
</g>
<g>
	<g>
		<path d="M288,208v16c0,17.673,14.327,32,32,32c17.673,0,32-14.327,32-32v-16H288z M320,240c-8.837,0-16-7.163-16-16h32
			C336,232.837,328.837,240,320,240z"/>
	</g>
</g>
<g>
	<g>
		<path d="M472,280H360v-0.8c28.957-13.123,49.452-39.833,54.632-71.2H424c13.255,0,24-10.745,24-24s-10.745-24-24-24h-8v-16h48v-8
			c-0.026-22.08-17.92-39.974-40-40h-8c0-53.019-42.981-96-96-96s-96,42.981-96,96v64h-8c-13.255,0-24,10.745-24,24s10.745,24,24,24
			h9.368c5.18,31.367,25.675,58.077,54.632,71.2v0.8H136c-4.418,0-8,3.582-8,8v8h-24c-4.418,0-8-3.582-8-8V128h32.8
			c4.396,21.65,25.51,35.636,47.16,31.24c18.657-3.789,32.059-20.202,32.04-39.24v-8h-32V96h32v-8
			c0.022-22.091-17.868-40.018-39.96-40.04C149.002,47.941,132.589,61.343,128.8,80H96V64c0-4.418-3.582-8-8-8H40
			c-4.418,0-8,3.582-8,8v16h-8C10.745,80,0,90.745,0,104s10.745,24,24,24h8v176c0.04,30.911,25.089,55.96,56,56h40v8
			c0,4.418,3.582,8,8,8h24v96c0,4.418,3.582,8,8,8h304c4.418,0,8-3.582,8-8V288C480,283.582,476.418,280,472,280z M224,192h-8
			c-4.418,0-8-3.582-8-8s3.582-8,8-8h8V192z M48,72h32v16H48V72z M24,112c-4.418,0-8-3.582-8-8s3.582-8,8-8h8c0,4.418,3.582,8,8,8
			h48c4.418,0,8-3.582,8-8h48v-8c-0.007-13.255,10.732-24.006,23.987-24.013C178.168,63.982,187.244,70.4,190.632,80H160v48h30.632
			c-4.411,12.499-18.12,19.056-30.619,14.645c-9.6-3.388-16.018-12.464-16.013-22.645v-8H24z M128,344H88
			c-22.08-0.026-39.974-17.92-40-40V128h32v160c0,13.255,10.745,24,24,24h24V344z M424,176c4.418,0,8,3.582,8,8s-3.582,8-8,8h-8v-16
			H424z M424,112c10.168,0.012,19.229,6.418,22.632,16H360c-10.168-0.012-19.229-6.418-22.632-16H424z M320,16
			c44.163,0.049,79.952,35.837,80,80H240C240.049,51.837,275.837,16.049,320,16z M240,112h46.984
			c-3.66,14.12-16.397,23.986-30.984,24h-16V112z M240,192v-40h16c23.397-0.043,43.361-16.934,47.28-40h17.52
			c3.827,18.611,20.199,31.976,39.2,32h40v48c0.115,32.976-20.141,62.599-50.912,74.456c-3.067,1.199-5.087,4.155-5.088,7.448V304
			c-0.017,6.362-2.544,12.459-7.032,16.968c-9.496,9.064-24.44,9.064-33.936,0c-4.488-4.509-7.015-10.606-7.032-16.968v-30.096
			c-0.001-3.293-2.021-6.249-5.088-7.448C260.141,254.599,239.885,224.976,240,192z M264,296h16v8
			c-0.026,10.613,4.194,20.796,11.72,28.28c15.623,15.619,40.95,15.615,56.569-0.009c7.497-7.499,11.709-17.668,11.711-28.271v-8h16
			v64H264V296z M168,360h-24v-64h72v68.688l-40,40V368C176,363.582,172.418,360,168,360z M464,464H176v-36.688l53.656-53.656
			c1.5-1.5,2.344-3.534,2.344-5.656v-72h16v72c0,4.418,3.582,8,8,8h128c4.418,0,8-3.582,8-8v-72h16v72
			c0,2.122,0.844,4.156,2.344,5.656L464,427.312V464z M464,404.688l-40-40V296h40V404.688z"/>
	</g>
</g>
<g>
</g>
<g>
</g>
<g>
</g>
<g>
</g>
<g>
</g>
<g>
</g>
<g>
</g>
<g>
</g>
<g>
</g>
<g>
</g>
<g>
</g>
<g>
</g>
<g>
</g>
<g>
</g>
<g>
</g>
</svg>
