<svg height="512" viewBox="0 0 512 512" width="512" xmlns="http://www.w3.org/2000/svg"><path d="m152 329.684v-131.368a87.824 87.824 0 0 0 43.693-105.441l-51.693 51.276a19.39 19.39 0 0 1 -13.741 5.6 19.389 19.389 0 0 1 -13.6-5.679l-28.73-28.73a19.388 19.388 0 0 1 -5.679-13.6 19.39 19.39 0 0 1 5.599-13.742l51.276-51.693a87.706 87.706 0 0 0 -38.015-3.632c-41.427 5.137-74.359 40.073-76.937 81.738a87.913 87.913 0 0 0 47.827 83.903v131.368a87.824 87.824 0 0 0 -43.693 105.441l51.693-51.276a19.39 19.39 0 0 1 13.741-5.6 19.389 19.389 0 0 1 13.6 5.679l28.73 28.73a19.388 19.388 0 0 1 5.679 13.6 19.39 19.39 0 0 1 -5.6 13.741l-51.275 51.694a87.706 87.706 0 0 0 38.015 3.632c41.427-5.137 74.359-40.073 76.937-81.738a87.913 87.913 0 0 0 -47.827-83.903z" fill="#d6d6d4"/><path d="m152 329.684v-100.351l-80 80v20.351a87.824 87.824 0 0 0 -43.693 105.441l51.693-51.276a19.39 19.39 0 0 1 27.345.076l28.73 28.729a19.391 19.391 0 0 1 .076 27.346l-51.276 51.693a87.706 87.706 0 0 0 38.015 3.632c41.427-5.137 74.359-40.073 76.937-81.738a87.913 87.913 0 0 0 -47.827-83.903z" fill="#c7c7c5"/><path d="m104 192h16v144h-16z" fill="#b0b0ae"/><path d="m488 400v-70.37a48 48 0 0 0 -41.212-47.517l-70.788-10.113v-48h-80v48l-74.057 15.869a48 48 0 0 0 -37.943 46.931v65.2" fill="#fec9a3"/><path d="m296 224v27.856a71.963 71.963 0 0 0 80 0v-27.856z" fill="#feb784"/><path d="m446.788 282.112-70.788-10.112-17.143 48h-45.714l-17.143-48-74.058 15.869a48 48 0 0 0 -37.942 46.931v65.2h304v-70.37a48 48 0 0 0 -41.212-47.518z" fill="#e0e0de"/><path d="m488 329.63v86.37h-56v80h-192v-72h-56v-89.2a48 48 0 0 1 37.94-46.93l74.06-15.87 40 112 40-112 70.79 10.11a48.017 48.017 0 0 1 41.21 47.52z" fill="#425b82"/><path d="m488 329.63v86.37h-56v80h-192v-37.76c91.59-36.41 168.66-75.08 233.16-163.31a47.9 47.9 0 0 1 14.84 34.7z" fill="#3c5174"/><g fill="#334562"><path d="m328 384h16v112h-16z"/><path d="m360 376h72v16h-72z"/><path d="m296 368h16v16h-16z"/><path d="m424 352h16v128h-16z"/><path d="m232 352h16v128h-16z"/></g><path d="m265.871 278.456 6.129 73.544 43.661-24.949-19.661-63.051z" fill="#49648e"/><path d="m356.339 327.051 43.661 24.949 6.306-75.671-30.306-12.329z" fill="#49648e"/><path d="m216 488h24l152-32h40l16-16h40v-56h-40l-56 24-208 16v32a32 32 0 0 0 32 32z" fill="#feb784"/><path d="m456 488h-24l-152-32h-40l-16-16h-40v-56h40l56 24 208 16v32a32 32 0 0 1 -32 32z" fill="#fec9a3"/><path d="m416 128h-8v48h8a24 24 0 1 0 0-48z" fill="#feb784"/><path d="m256.4 128h-.4a24 24 0 0 0 0 48h8v-48z" fill="#feb784"/><path d="m408 120v56a72.006 72.006 0 0 1 -72 72 73.884 73.884 0 0 1 -7.48-.38 72.025 72.025 0 0 1 -64.52-71.62v-56a72.006 72.006 0 0 1 72-72q3 0 5.94.24a.01.01 0 0 1 .01.01 72 72 0 0 1 66.05 71.75z" fill="#fec9a3"/><path d="m408 120v56a72.006 72.006 0 0 1 -72 72 73.884 73.884 0 0 1 -7.48-.38 87.994 87.994 0 0 0 50.48-79.62v-48a88.1 88.1 0 0 0 -37.05-71.75 72 72 0 0 1 66.05 71.75z" fill="#fec093"/><path d="m301.8 89.157a174.36 174.36 0 0 0 68.4 0l5.8-1.157 32 37.333v-5.333a72 72 0 0 0 -144 0v5.331l32-37.331z" fill="#7a432a"/><path d="m328.938 200h-16.938v-16h16.938a99.077 99.077 0 0 0 28.742-4.215l4.64 15.313a115.016 115.016 0 0 1 -33.382 4.902z" fill="#f7a468"/><circle cx="372" cy="147.998" fill="#7a432a" r="12"/><circle cx="300" cy="147.996" fill="#7a432a" r="12"/><path d="m417.77 113.06a24.289 24.289 0 0 1 -28.27 23.86l-21.94-3.66a192.325 192.325 0 0 0 -63.12 0l-21.94 3.66a24.247 24.247 0 0 1 -26.5-32.92h160a24.361 24.361 0 0 1 1.77 9.06z" fill="#49648e"/><path d="m416 72v32h-160v-32a48 48 0 0 1 48-48h64a47.982 47.982 0 0 1 15.18 2.46c.89.3 1.77.62 2.63.97a47.98 47.98 0 0 1 30.19 44.57z" fill="#425b82"/><path d="m416 72v32h-136c48-16 81.59-44.03 105.81-76.57a47.98 47.98 0 0 1 30.19 44.57z" fill="#3c5174"/><path d="m304 72h64v32h-64z" fill="#e0e0de"/><path d="m304 88h64v16h-64z" fill="#d6d6d4"/><path d="m417.77 113.06a24.289 24.289 0 0 1 -28.27 23.86l-21.94-3.66a191.346 191.346 0 0 0 -20.52-2.29c16.84-7.09 30.66-15.9 40.81-26.97h28.15a24.361 24.361 0 0 1 1.77 9.06z" fill="#425b82"/></svg>