<?xml version="1.0" encoding="iso-8859-1"?>
<!-- Generator: Adobe Illustrator 19.0.0, SVG Export Plug-In . SVG Version: 6.00 Build 0)  -->
<svg version="1.1" id="Capa_1" xmlns="http://www.w3.org/2000/svg" xmlns:xlink="http://www.w3.org/1999/xlink" x="0px" y="0px"
	 viewBox="0 0 512.002 512.002" style="enable-background:new 0 0 512.002 512.002;" xml:space="preserve">
<g>
	<path style="fill:#C5C9F7;" d="M268.208,200.717l-18.6-13.799l-95.999-97.227l10.499-10.201c6.901-6.899,5.7-18.6-2.699-23.699
		l-80.7-48.3c-21-12.301-47.701-9.001-65.4,8.099c-16.8,17.401-20.101,44.101-7.8,65.4l48.3,80.101
		c4.799,7.798,16.199,10.199,23.401,2.699l10.499-10.199l95.1,95.427l15.3,19.799c5.7,7.2,16.199,7.8,22.5,1.199l46.8-46.8
		C276.008,216.918,275.109,206.417,268.208,200.717z"/>
	<path style="fill:#C5C9F7;" d="M375.308,285.617l-60.3-46.8c-6-4.501-14.399-3.9-19.799,1.5l-27.9,27.9l-27.9,27.601
		c-5.402,5.099-6,13.799-1.501,19.799l47.1,60.601c5.7,6.899,16.201,7.8,22.5,1.199l33.839-35.615l35.161-33.685
		C383.109,301.817,382.208,291.317,375.308,285.617z"/>
</g>
<g>
	<path style="fill:#A8AFF1;" d="M269.409,223.217l-23.401,23.401L15.309,15.589c17.699-17.1,44.399-20.4,65.4-8.099l80.7,48.3
		c8.399,5.099,9.6,16.8,2.699,23.699L153.609,89.69l95.999,97.227l18.6,13.799C275.109,206.417,276.008,216.918,269.409,223.217z"/>
	<path style="fill:#A8AFF1;" d="M376.508,308.117l-35.161,33.685l-74.038-73.585l27.9-27.9c5.4-5.4,13.799-6,19.799-1.5l60.3,46.8
		C382.208,291.317,383.109,301.817,376.508,308.117z"/>
</g>
<path style="fill:#FD003A;" d="M489.847,384.401c-54.901-54.901-27.838-31.284-125.038-106.885l-43.801,44.101l-44.099,44.099
	c77.098,98.401,54.237,72.084,104.637,122.185c15.601,15.899,36.601,24,57.001,24c15,0,29.7-4.501,42.001-13.2
	c3.3-2.401,6.599-5.099,9.3-8.401c12.599-12.299,20.4-28.799,21.899-46.5C513.547,421.601,505.746,400.002,489.847,384.401z"/>
<path style="fill:#E50027;" d="M511.747,443.801c-1.5,17.701-9.3,34.2-21.899,46.5l-168.84-168.683l43.801-44.101
	c97.2,75.601,70.138,51.984,125.038,106.885C505.746,400.002,513.547,421.601,511.747,443.801z"/>
<path style="fill:#E1E4FB;" d="M501.786,59.716c-2.1-4.199-6.301-7.5-11.1-8.099c-4.801-0.901-9.6,0.599-12.902,4.2l-38.699,38.699
	c-5.7,5.4-15.601,5.4-21.301,0h-0.298c-5.7-6-5.7-15.3,0-21.301l39-39c3.6-3.3,5.099-8.399,4.2-13.2
	c-0.901-4.799-3.9-8.699-8.401-10.8c-40.201-19.2-88.5-10.8-119.399,20.7c-29.101,28.799-38.401,71.4-24.901,109.2L140.218,308.303
	c-37.798-13.2-80.698-4.2-109.799,24.6c-31.199,31.5-39.3,79.799-20.099,119.7c4.499,9.3,16.8,11.1,24,3.9l38.699-38.699
	c6-5.7,15.3-5.7,21.301,0.298c6,5.7,6.301,14.702,0,21l-38.699,38.701c-7.5,7.2-5.402,19.499,3.9,24
	c14.398,6.899,29.999,10.199,45.297,10.199c27.301,0,54.3-10.499,74.702-30.599c28.499-29.101,37.798-72.001,24.3-109.501
	l168.066-167.884c37.8,13.499,80.4,4.199,109.2-24.901C512.586,147.916,520.985,99.917,501.786,59.716z"/>
<path style="fill:#C5C9F7;" d="M481.086,179.118c-28.801,29.099-71.4,38.399-109.2,24.901L203.819,371.903
	c13.499,37.5,4.199,80.4-24.3,109.501c-20.401,20.099-47.4,30.598-74.701,30.598c-15.298,0-30.899-3.3-45.298-10.199
	c-9.302-4.501-11.4-16.8-3.9-24l38.699-38.701c6.301-6.299,6-15.3,0-21L417.785,94.517c5.7,5.4,15.601,5.4,21.301,0l38.699-38.699
	c3.301-3.602,8.101-5.101,12.902-4.2c4.799,0.599,9,3.9,11.1,8.099C520.985,99.917,512.586,147.916,481.086,179.118z"/>
<path style="fill:#E50027;" d="M446.047,446.502c-5.4,4.2-13.2,5.4-19.799-1.201l-60-60c-6.601-6.599-5.402-14.399-1.201-19.799
	c5.101-6.301,14.7-8.699,22.2-1.199l60,60C454.746,431.802,452.347,441.4,446.047,446.502z"/>
<path style="fill:#C1001F;" d="M446.047,446.502l-81-81c5.101-6.301,14.7-8.699,22.2-1.199l60,60
	C454.746,431.802,452.347,441.4,446.047,446.502z"/>
<g>
</g>
<g>
</g>
<g>
</g>
<g>
</g>
<g>
</g>
<g>
</g>
<g>
</g>
<g>
</g>
<g>
</g>
<g>
</g>
<g>
</g>
<g>
</g>
<g>
</g>
<g>
</g>
<g>
</g>
</svg>
