<svg height="512" viewBox="0 0 64 64" width="512" xmlns="http://www.w3.org/2000/svg"><g id="Tow_Truck" data-name="Tow Truck"><path d="m39 42v9h-22a5 5 0 0 0 -10 0h-3a1 1 0 0 1 -1-1v-8z" fill="#cc7400"/><circle cx="8" cy="38" fill="#57565c" r="2"/><circle cx="26" cy="38" fill="#57565c" r="2"/><path d="m16 26v6h-9l2.45-4.89a2 2 0 0 1 1.79-1.11z" fill="#d1d3d4"/><path d="m27 32h-11v-6h4z" fill="#e6e7e8"/><circle cx="49" cy="51" fill="#57565c" r="5"/><path d="m55 40v2a1 1 0 0 0 1 1h5v6a2.006 2.006 0 0 1 -2 2h-5a5 5 0 0 0 -10 0h-5v-27h4v11h17.84a3.773 3.773 0 0 1 .16 1.11v2.89h-5a1 1 0 0 0 -1 1z" fill="#ee8700"/><path d="m61 39v4h-5a1 1 0 0 1 -1-1v-2a1 1 0 0 1 1-1z" fill="#e6e7e8"/><path d="m60.84 35h-17.84v-11h10.81a2 2 0 0 1 1.76 1.05l4.86 9a3.793 3.793 0 0 1 .41.95z" fill="#e6e7e8"/><path d="m39 28v14h-4v-15.86z" fill="#787680"/><path d="m39 28v2l-4-1.86v-2z" fill="#57565c"/><path d="m19 51h-2a5 5 0 0 0 -10 0h-2a7 7 0 0 1 14 0z" fill="#aa6100"/><circle cx="12" cy="51" fill="#57565c" r="5"/><path d="m31 34v4h-3a2 2 0 0 0 -4 0h-14a2 2 0 0 0 -4 0h-3v-5a1 1 0 0 1 1-1h25.01z" fill="#3d9ae2"/><path d="m11 38h-1a2 2 0 0 0 -4 0h-1a3 3 0 0 1 6 0z" fill="#1e81ce"/><path d="m29 38h-1a2 2 0 0 0 -4 0h-1a3 3 0 0 1 6 0z" fill="#1e81ce"/><path d="m56 51h-2a5 5 0 0 0 -10 0h-2a7 7 0 0 1 14 0z" fill="#cc7400"/><path d="m12 57a6 6 0 1 1 6-6 6.006 6.006 0 0 1 -6 6zm0-10a4 4 0 1 0 4 4 4 4 0 0 0 -4-4z" fill="#3e3d42"/><path d="m49 57a6 6 0 1 1 6-6 6.006 6.006 0 0 1 -6 6zm0-10a4 4 0 1 0 4 4 4 4 0 0 0 -4-4z" fill="#3e3d42"/><path d="m57 46h4v2h-4z" fill="#ffd422"/><path d="m42 38h4v2h-4z" fill="#cc7400"/><g fill="#3e3d42"><path d="m11 50h2v2h-2z"/><path d="m48 50h2v2h-2z"/><path d="m8 41a3 3 0 1 1 3-3 3 3 0 0 1 -3 3zm0-4a1 1 0 1 0 1 1 1 1 0 0 0 -1-1z"/><path d="m26 41a3 3 0 1 1 3-3 3 3 0 0 1 -3 3zm0-4a1 1 0 1 0 1 1 1 1 0 0 0 -1-1z"/></g><path d="m15 26h2v6h-2z" fill="#bcbec0"/><path d="m7 24a3 3 0 0 1 -3-3h2a1 1 0 1 0 1-1 1 1 0 0 1 -1-1v-5.917h2v5.088a3 3 0 0 1 -1 5.829z" fill="#bcbec0"/><path d="m39.9 24h-.9v4l-4-1.86-28-13.06-.63-.29 1.69-3.63z" fill="#898890"/></g></svg>