<svg xmlns="http://www.w3.org/2000/svg" height="591pt" version="1.1" viewBox="1 -163 591.6 591" width="591pt">
<g id="surface1">
<path d="M 468.496094 11.421875 C 462.6875 4.453125 454.09375 0.421875 445.019531 0.410156 L 343.011719 0.410156 C 332.765625 0.398438 323.179688 5.515625 317.496094 14.046875 L 285.792969 61.652344 L 510.34375 61.652344 Z M 468.496094 11.421875 " style=" stroke:none;fill-rule:nonzero;fill:rgb(41.176471%,80%,84.313725%);fill-opacity:1;" />
<path d="M 468.496094 11.421875 C 464.84375 7.125 460.054688 3.933594 454.6875 2.1875 L 348.496094 61.652344 L 510.34375 61.652344 Z M 468.496094 11.421875 " style=" stroke:none;fill-rule:nonzero;fill:rgb(38.039216%,74.117647%,78.039216%);fill-opacity:1;" />
<path d="M 540.964844 61.652344 L 285.792969 61.652344 L 222.019531 69.625 C 211.804688 70.898438 204.136719 79.585938 204.136719 89.882812 L 204.136719 143.308594 L 561.378906 143.308594 L 561.378906 82.066406 C 561.378906 70.785156 552.242188 61.652344 540.964844 61.652344 Z M 540.964844 61.652344 " style=" stroke:none;fill-rule:nonzero;fill:rgb(86.666667%,21.960784%,10.196078%);fill-opacity:1;" />
<path d="M 204.136719 112.6875 L 561.378906 112.6875 L 561.378906 143.308594 L 204.136719 143.308594 Z M 204.136719 112.6875 " style=" stroke:none;fill-rule:nonzero;fill:rgb(81.568627%,20.392157%,9.411765%);fill-opacity:1;" />
<path d="M 576.933594 173.925781 L 0 173.925781 L 0 214.753906 L 592 214.753906 L 592 194.339844 Z M 576.933594 173.925781 " style=" stroke:none;fill-rule:nonzero;fill:rgb(64.313725%,69.019608%,74.901961%);fill-opacity:1;" />
<path d="M 163.308594 173.925781 L 275.585938 173.925781 L 275.585938 235.167969 L 163.308594 235.167969 Z M 163.308594 173.925781 " style=" stroke:none;fill-rule:nonzero;fill:rgb(76.470588%,78.823529%,81.960784%);fill-opacity:1;" />
<path d="M 97.984375 31.03125 L 51.035156 31.03125 L 0 112.6875 L 0 113.308594 L 81.65625 112.6875 Z M 97.984375 31.03125 " style=" stroke:none;fill-rule:nonzero;fill:rgb(41.176471%,80%,84.313725%);fill-opacity:1;" />
<path d="M 97.984375 31.03125 L 81.65625 112.6875 L 0 113.308594 L 0 173.925781 L 163.308594 173.925781 L 163.308594 31.03125 Z M 97.984375 31.03125 " style=" stroke:none;fill-rule:nonzero;fill:rgb(26.27451%,58.039216%,80%);fill-opacity:1;" />
<path d="M 121.972656 214.753906 C 119.308594 189.667969 96.8125 171.488281 71.734375 174.152344 C 50.320312 176.429688 33.40625 193.339844 31.132812 214.753906 C 30.867188 216.449219 30.691406 218.15625 30.621094 219.859375 C 30.621094 245.222656 51.1875 265.789062 76.550781 265.789062 C 101.914062 265.789062 122.484375 245.222656 122.484375 219.859375 C 122.410156 218.15625 122.238281 216.449219 121.972656 214.753906 Z M 121.972656 214.753906 " style=" stroke:none;fill-rule:nonzero;fill:rgb(41.176471%,48.235294%,54.901961%);fill-opacity:1;" />
<path d="M 76.550781 235.167969 C 68.101562 235.167969 61.242188 228.308594 61.242188 219.859375 C 61.242188 211.40625 68.101562 204.546875 76.550781 204.546875 C 85.003906 204.546875 91.863281 211.40625 91.863281 219.859375 C 91.863281 228.308594 85.003906 235.167969 76.550781 235.167969 Z M 76.550781 235.167969 " style=" stroke:none;fill-rule:nonzero;fill:rgb(76.470588%,78.823529%,81.960784%);fill-opacity:1;" />
<path d="M 499.628906 214.753906 C 496.964844 189.667969 474.46875 171.488281 449.390625 174.152344 C 427.976562 176.429688 411.0625 193.339844 408.785156 214.753906 C 408.519531 216.449219 408.347656 218.15625 408.277344 219.859375 C 408.277344 245.222656 428.84375 265.789062 454.207031 265.789062 C 479.570312 265.789062 500.136719 245.222656 500.136719 219.859375 C 500.066406 218.15625 499.894531 216.449219 499.628906 214.753906 Z M 499.628906 214.753906 " style=" stroke:none;fill-rule:nonzero;fill:rgb(41.176471%,48.235294%,54.901961%);fill-opacity:1;" />
<path d="M 454.207031 235.167969 C 445.753906 235.167969 438.898438 228.308594 438.898438 219.859375 C 438.898438 211.40625 445.753906 204.546875 454.207031 204.546875 C 462.660156 204.546875 469.515625 211.40625 469.515625 219.859375 C 469.515625 228.308594 462.660156 235.167969 454.207031 235.167969 Z M 454.207031 235.167969 " style=" stroke:none;fill-rule:nonzero;fill:rgb(76.470588%,78.823529%,81.960784%);fill-opacity:1;" />
<path d="M 11.421875 94.40625 L 0 112.6875 L 0 113.308594 L 81.65625 112.6875 L 92.351562 59.222656 Z M 11.421875 94.40625 " style=" stroke:none;fill-rule:nonzero;fill:rgb(38.039216%,74.117647%,78.039216%);fill-opacity:1;" />
<path d="M 387.863281 0.410156 L 408.277344 0.410156 L 408.277344 61.652344 L 387.863281 61.652344 Z M 387.863281 0.410156 " style=" stroke:none;fill-rule:nonzero;fill:rgb(31.764706%,61.568627%,65.098039%);fill-opacity:1;" />
<path d="M 314.535156 133.101562 C 308.726562 117.390625 291.292969 109.359375 275.578125 115.167969 C 259.859375 120.976562 251.835938 138.40625 257.644531 154.125 C 263.449219 169.835938 280.882812 177.867188 296.601562 172.058594 C 308.617188 167.621094 316.546875 156.117188 316.414062 143.308594 C 316.371094 139.828125 315.742188 136.367188 314.535156 133.101562 Z M 314.535156 133.101562 " style=" stroke:none;fill-rule:nonzero;fill:rgb(34.117647%,39.607843%,45.098039%);fill-opacity:1;" />
<path d="M 508.464844 133.101562 C 502.660156 117.390625 485.226562 109.359375 469.507812 115.167969 C 453.796875 120.976562 445.765625 138.40625 451.574219 154.125 C 457.382812 169.835938 474.816406 177.867188 490.535156 172.058594 C 502.546875 167.621094 510.476562 156.117188 510.34375 143.308594 C 510.304688 139.828125 509.671875 136.367188 508.464844 133.101562 Z M 508.464844 133.101562 " style=" stroke:none;fill-rule:nonzero;fill:rgb(34.117647%,39.607843%,45.098039%);fill-opacity:1;" />
<path d="M 387.863281 61.652344 L 408.277344 61.652344 L 408.277344 143.308594 L 387.863281 143.308594 Z M 387.863281 61.652344 " style=" stroke:none;fill-rule:nonzero;fill:rgb(76.862745%,19.215686%,9.019608%);fill-opacity:1;" />
</g>
</svg>